<svg
  xmlns="http://www.w3.org/2000/svg"
  xmlns:xlink="http://www.w3.org/1999/xlink"
  width="600"
  zoomAndPan="magnify"
  viewBox="0 0 450 449.999984"
  height="600"
  preserveAspectRatio="xMidYMid meet"
  version="1.0"
>
  <defs>
    <clipPath id="272fbe24a1">
      <path
        d="M 258 149.117188 L 423.238281 149.117188 L 423.238281 366.902344 L 258 366.902344 Z M 258 149.117188 "
        clip-rule="nonzero"
      />
    </clipPath>
    <clipPath id="1b750490dc">
      <path
        d="M 324.28125 149.117188 L 423.238281 149.117188 L 423.238281 366.902344 L 324.28125 366.902344 Z M 324.28125 149.117188 "
        clip-rule="nonzero"
      />
    </clipPath>
    <clipPath id="48e3bc33a1">
      <path
        d="M 323 150 L 423 150 L 423 366.902344 L 323 366.902344 Z M 323 150 "
        clip-rule="nonzero"
      />
    </clipPath>
    <clipPath id="07e9ffd3d1">
      <path
        d="M 26.71875 279 L 142 279 L 142 367 L 26.71875 367 Z M 26.71875 279 "
        clip-rule="nonzero"
      />
    </clipPath>
    <clipPath id="f3255fd589">
      <path
        d="M 26.71875 279 L 107 279 L 107 367 L 26.71875 367 Z M 26.71875 279 "
        clip-rule="nonzero"
      />
    </clipPath>
    <clipPath id="e3aa6b0dbf">
      <path
        d="M 26.71875 279 L 142 279 L 142 367 L 26.71875 367 Z M 26.71875 279 "
        clip-rule="nonzero"
      />
    </clipPath>
    <clipPath id="ed50017500">
      <path
        d="M 26.71875 279 L 142 279 L 142 367 L 26.71875 367 Z M 26.71875 279 "
        clip-rule="nonzero"
      />
    </clipPath>
    <clipPath id="e205b8bbd8">
      <path
        d="M 26.71875 279 L 27 279 L 27 280 L 26.71875 280 Z M 26.71875 279 "
        clip-rule="nonzero"
      />
    </clipPath>
    <clipPath id="45b0ab4f2c">
      <path
        d="M 26.71875 279 L 107 279 L 107 367 L 26.71875 367 Z M 26.71875 279 "
        clip-rule="nonzero"
      />
    </clipPath>
    <clipPath id="1500d6fcd4">
      <path
        d="M 36 366.082031 L 423.238281 366.082031 L 423.238281 371.011719 L 36 371.011719 Z M 36 366.082031 "
        clip-rule="nonzero"
      />
    </clipPath>
  </defs>
  <g clip-path="url(#272fbe24a1)">
    <path
      fill="#cec7f2"
      d="M 408.792969 153.421875 C 407.621094 149.996094 404.863281 148.964844 401.566406 150.816406 C 285.816406 215.871094 255.691406 315.195312 258.539062 366.1875 L 385.582031 366.1875 C 445.835938 280.546875 417.9375 180.226562 408.792969 153.421875 "
      fill-opacity="1"
      fill-rule="nonzero"
    />
  </g>
  <g clip-path="url(#1b750490dc)">
    <path
      fill="#dad4f6"
      d="M 385.582031 366.1875 L 324.539062 366.1875 L 327.679688 358 L 412.691406 311.351562 C 412.996094 310.402344 413.28125 309.457031 413.566406 308.503906 L 328.707031 355.320312 L 339.226562 327.894531 L 420.464844 277.101562 C 420.609375 276.105469 420.746094 275.109375 420.878906 274.113281 L 340.457031 324.6875 L 352.359375 293.648438 L 422.957031 240.0625 C 422.949219 239.007812 422.933594 237.96875 422.914062 236.929688 L 353.898438 289.640625 L 368.808594 250.765625 L 420.207031 202.800781 C 420.058594 201.699219 419.894531 200.621094 419.734375 199.546875 L 370.828125 245.492188 L 407.09375 150.933594 C 406.398438 150.339844 405.574219 150.039062 404.644531 150.027344 L 368.554688 245.296875 L 366.648438 250.328125 L 362.671875 260.816406 C 384.289062 203.117188 404.324219 149.910156 404.679688 149.910156 C 406.546875 149.9375 408.019531 151.15625 408.792969 153.421875 C 413.515625 167.273438 423.242188 200.738281 423.238281 241.664062 C 423.238281 279.960938 414.707031 324.792969 385.582031 366.1875 "
      fill-opacity="1"
      fill-rule="nonzero"
    />
  </g>
  <path
    fill="#bab1ec"
    d="M 323.285156 366.1875 L 322.757812 366.1875 L 325.949219 357.765625 L 326.90625 355.234375 L 337.371094 327.601562 L 300.578125 265.585938 C 300.550781 264.46875 300.515625 263.359375 300.480469 262.25 L 300.46875 262.269531 C 300.441406 261.34375 300.410156 260.429688 300.378906 259.511719 L 338.519531 324.574219 L 350.375 293.277344 L 321.714844 214.164062 C 322.507812 213.285156 323.296875 212.394531 324.105469 211.519531 L 351.839844 289.417969 L 362.671875 260.816406 C 348.53125 298.570312 333.714844 338.238281 323.285156 366.1875 "
    fill-opacity="1"
    fill-rule="nonzero"
  />
  <g clip-path="url(#48e3bc33a1)">
    <path
      fill="#c5bcef"
      d="M 324.539062 366.1875 L 323.285156 366.1875 C 333.714844 338.238281 348.53125 298.570312 362.671875 260.816406 L 366.648438 250.328125 L 368.554688 245.296875 L 404.644531 150.027344 C 405.574219 150.039062 406.398438 150.339844 407.09375 150.933594 L 370.828125 245.492188 L 419.734375 199.546875 C 419.894531 200.621094 420.058594 201.699219 420.207031 202.800781 L 368.808594 250.765625 L 353.898438 289.640625 L 422.914062 236.929688 C 422.933594 237.96875 422.949219 239.007812 422.957031 240.0625 L 352.359375 293.648438 L 340.457031 324.6875 L 420.878906 274.113281 C 420.746094 275.109375 420.609375 276.105469 420.464844 277.101562 L 339.226562 327.894531 L 328.707031 355.320312 L 413.566406 308.503906 C 413.28125 309.457031 412.996094 310.402344 412.691406 311.351562 L 327.679688 358 L 324.539062 366.1875 "
      fill-opacity="1"
      fill-rule="nonzero"
    />
  </g>
  <path
    fill="#bab1ec"
    d="M 302.300781 366.1875 L 299.335938 366.1875 L 294.011719 360.546875 C 294.164062 359.628906 294.3125 358.71875 294.457031 357.800781 L 302.300781 366.1875 "
    fill-opacity="1"
    fill-rule="nonzero"
  />
  <path
    fill="#cec7f2"
    d="M 44.203125 220.683594 C 44.203125 220.683594 47.902344 274.972656 66.160156 330.894531 L 133.734375 330.894531 C 100.539062 239.652344 44.203125 220.683594 44.203125 220.683594 "
    fill-opacity="1"
    fill-rule="nonzero"
  />
  <path
    fill="#e7e3f9"
    d="M 52.773438 279.546875 L 52.761719 279.542969 C 52.457031 278.035156 52.167969 276.558594 51.882812 275.085938 C 52.171875 276.554688 52.464844 278.046875 52.773438 279.546875 M 82.761719 247.410156 C 82.011719 246.667969 81.269531 245.949219 80.527344 245.246094 C 80.527344 245.242188 80.53125 245.226562 80.53125 245.222656 C 81.265625 245.914062 82.015625 246.667969 82.761719 247.40625 L 82.761719 247.410156 M 44.453125 223.742188 C 44.445312 223.644531 44.4375 223.550781 44.425781 223.460938 C 44.4375 223.550781 44.445312 223.644531 44.453125 223.742188 "
    fill-opacity="1"
    fill-rule="nonzero"
  />
  <path
    fill="#bab1ec"
    d="M 87.335938 301.691406 L 52.773438 279.546875 C 52.464844 278.046875 52.171875 276.554688 51.882812 275.085938 C 51.992188 275.0625 52.082031 274.984375 52.1875 274.984375 C 52.226562 274.984375 52.269531 274.996094 52.3125 275.027344 L 85.867188 296.519531 C 72.5 271.210938 58.6875 246.894531 44.453125 223.742188 C 44.445312 223.644531 44.4375 223.550781 44.425781 223.460938 C 44.273438 221.691406 44.207031 220.703125 44.203125 220.683594 C 44.296875 220.835938 64.121094 254.414062 87.089844 297.277344 C 87.164062 298.753906 87.246094 300.226562 87.335938 301.691406 M 82.761719 247.410156 C 82.011719 246.667969 81.269531 245.949219 80.527344 245.246094 C 81.269531 245.949219 82.011719 246.667969 82.761719 247.410156 "
    fill-opacity="1"
    fill-rule="nonzero"
  />
  <path
    fill="#f0eefb"
    d="M 65.0625 232.40625 C 53.269531 223.945312 44.980469 220.953125 44.253906 220.699219 C 44.222656 220.6875 44.203125 220.683594 44.203125 220.683594 C 44.203125 220.683594 52.710938 223.546875 65.0625 232.40625 "
    fill-opacity="1"
    fill-rule="nonzero"
  />
  <path
    fill="#dad4f6"
    d="M 86.921875 293.394531 C 73.691406 268.359375 60.023438 244.296875 45.945312 221.359375 C 45.023438 220.976562 44.425781 220.761719 44.253906 220.699219 C 44.980469 220.953125 53.269531 223.945312 65.0625 232.40625 C 69.75 235.765625 74.992188 239.988281 80.527344 245.246094 C 80.484375 245.542969 80.421875 245.820312 80.480469 246.214844 L 86.78125 288.902344 C 86.820312 290.40625 86.867188 291.902344 86.921875 293.394531 M 86.761719 274.503906 L 82.761719 247.410156 C 84.472656 249.097656 86.207031 250.882812 87.960938 252.773438 C 87.300781 260.09375 86.914062 267.351562 86.761719 274.503906 "
    fill-opacity="1"
    fill-rule="nonzero"
  />
  <path
    fill="#e5e1f9"
    d="M 44.253906 220.699219 C 44.226562 220.6875 44.207031 220.683594 44.203125 220.683594 C 44.203125 220.683594 44.222656 220.6875 44.253906 220.699219 "
    fill-opacity="1"
    fill-rule="nonzero"
  />
  <path
    fill="#cbc3f1"
    d="M 87.089844 297.277344 C 64.121094 254.414062 44.296875 220.835938 44.203125 220.683594 C 44.207031 220.683594 44.226562 220.6875 44.253906 220.699219 C 44.425781 220.761719 45.023438 220.976562 45.945312 221.359375 C 60.023438 244.296875 73.691406 268.359375 86.921875 293.394531 C 86.96875 294.695312 87.027344 295.984375 87.089844 297.277344 M 86.78125 288.902344 L 80.480469 246.214844 C 80.421875 245.820312 80.484375 245.542969 80.527344 245.246094 C 81.269531 245.949219 82.011719 246.667969 82.761719 247.410156 L 86.761719 274.503906 C 86.660156 279.351562 86.667969 284.15625 86.78125 288.902344 "
    fill-opacity="1"
    fill-rule="nonzero"
  />
  <path
    fill="#cec7f2"
    d="M 203.253906 355.410156 C 210.304688 210.21875 135.273438 158.640625 120.203125 149.78125 C 118.609375 148.84375 116.964844 149.566406 115.898438 151.714844 C 78.632812 226.882812 82.175781 309.5625 98.148438 366.296875 L 202.597656 366.296875 C 202.84375 362.789062 203.070312 359.1875 203.253906 355.410156 "
    fill-opacity="1"
    fill-rule="nonzero"
  />
  <path
    fill="#f0eefb"
    d="M 181.476562 223.011719 C 160.554688 177.179688 130.992188 156.304688 121.027344 150.269531 C 130.992188 156.304688 160.554688 177.179688 181.476562 223.011719 M 118.429688 149.410156 C 118.429688 149.410156 118.429688 149.410156 118.433594 149.410156 C 118.429688 149.410156 118.429688 149.410156 118.429688 149.410156 "
    fill-opacity="1"
    fill-rule="nonzero"
  />
  <path
    fill="#dad4f6"
    d="M 166.730469 366.296875 L 159.710938 366.296875 L 153.3125 332.515625 L 170.507812 284.757812 C 167.152344 313.242188 166.054688 341.109375 166.730469 366.296875 M 152.628906 328.902344 L 146.132812 294.617188 L 174.382812 208.953125 C 173.980469 208.226562 173.574219 207.503906 173.167969 206.792969 L 145.425781 290.902344 L 139.128906 257.652344 L 138.378906 253.691406 L 131.726562 218.578125 L 130.90625 214.234375 L 118.632812 149.453125 C 118.113281 149.496094 117.628906 149.714844 117.167969 150.097656 L 129.511719 215.246094 L 129.464844 215.195312 C 122.203125 177.453125 117.007812 150.15625 117.152344 150.035156 C 117.546875 149.703125 117.972656 149.492188 118.417969 149.414062 C 118.421875 149.414062 118.425781 149.414062 118.429688 149.410156 C 118.429688 149.410156 118.429688 149.410156 118.433594 149.410156 C 118.5625 149.386719 118.695312 149.378906 118.828125 149.378906 C 119.28125 149.378906 119.746094 149.511719 120.203125 149.78125 C 120.460938 149.929688 120.738281 150.09375 121.027344 150.269531 C 130.992188 156.304688 160.554688 177.179688 181.476562 223.011719 C 177.199219 240.605469 173.941406 258.523438 171.570312 276.300781 L 152.628906 328.902344 M 131.765625 227.144531 C 131.253906 224.503906 130.753906 221.910156 130.261719 219.351562 L 130.296875 219.382812 L 131.765625 227.144531 "
    fill-opacity="1"
    fill-rule="nonzero"
  />
  <path
    fill="#bab1ec"
    d="M 158.695312 366.296875 L 158.128906 366.296875 L 151.886719 333.363281 L 151.242188 329.957031 L 144.707031 295.449219 L 87.542969 257.929688 C 87.613281 256.957031 87.691406 255.980469 87.769531 255.007812 L 144.039062 291.9375 L 137.695312 258.449219 L 92.960938 218.8125 C 93.144531 217.921875 93.324219 217.027344 93.515625 216.132812 L 136.972656 254.636719 L 131.765625 227.144531 C 140.09375 270.371094 150.476562 323.945312 158.695312 366.296875 M 130.261719 219.351562 L 101.171875 187.835938 C 101.433594 187.027344 101.703125 186.222656 101.972656 185.417969 L 129.464844 215.195312 C 129.726562 216.570312 129.992188 217.949219 130.261719 219.351562 "
    fill-opacity="1"
    fill-rule="nonzero"
  />
  <path
    fill="#c5bcef"
    d="M 159.710938 366.296875 L 158.695312 366.296875 C 150.476562 323.945312 140.09375 270.371094 131.765625 227.144531 L 130.296875 219.382812 L 130.261719 219.351562 C 129.992188 217.949219 129.726562 216.570312 129.464844 215.195312 L 129.511719 215.246094 L 117.167969 150.097656 C 117.628906 149.714844 118.113281 149.496094 118.632812 149.453125 L 130.90625 214.234375 L 131.726562 218.578125 L 138.378906 253.691406 L 139.128906 257.652344 L 145.425781 290.902344 L 173.167969 206.792969 C 173.574219 207.503906 173.980469 208.226562 174.382812 208.953125 L 146.132812 294.617188 L 152.628906 328.902344 L 171.570312 276.300781 C 171.195312 279.117188 170.839844 281.949219 170.507812 284.757812 L 153.3125 332.515625 L 159.710938 366.296875 "
    fill-opacity="1"
    fill-rule="nonzero"
  />
  <path
    fill="#cec7f2"
    d="M 262.355469 83.066406 C 261.0625 80.160156 259.15625 79.292969 257.351562 80.855469 C 186.097656 142.601562 164.21875 272.886719 166.730469 366.296875 L 293.039062 366.296875 C 318.601562 221.117188 273 107.007812 262.355469 83.066406 "
    fill-opacity="1"
    fill-rule="nonzero"
  />
  <path
    fill="#f0eefb"
    d="M 261.019531 80.988281 L 261.019531 80.988281 M 261.007812 80.972656 L 261.007812 80.972656 M 260.996094 80.960938 C 260.996094 80.960938 260.996094 80.960938 260.992188 80.960938 C 260.996094 80.960938 260.996094 80.960938 260.996094 80.960938 M 260.984375 80.953125 C 260.984375 80.949219 260.984375 80.949219 260.984375 80.949219 C 260.984375 80.949219 260.984375 80.949219 260.984375 80.953125 M 260.972656 80.9375 C 260.96875 80.933594 260.96875 80.933594 260.96875 80.933594 C 260.96875 80.933594 260.96875 80.933594 260.972656 80.9375 M 260.960938 80.925781 C 260.957031 80.925781 260.957031 80.921875 260.957031 80.921875 C 260.957031 80.921875 260.957031 80.925781 260.960938 80.925781 M 260.945312 80.914062 C 260.945312 80.914062 260.945312 80.914062 260.945312 80.910156 C 260.945312 80.914062 260.945312 80.914062 260.945312 80.914062 M 260.933594 80.902344 C 260.933594 80.898438 260.929688 80.898438 260.929688 80.898438 C 260.929688 80.898438 260.933594 80.898438 260.933594 80.902344 M 260.921875 80.890625 C 260.921875 80.890625 260.917969 80.886719 260.917969 80.882812 C 260.917969 80.886719 260.921875 80.890625 260.921875 80.890625 M 260.910156 80.878906 C 260.910156 80.878906 260.90625 80.875 260.90625 80.875 C 260.90625 80.875 260.910156 80.878906 260.910156 80.878906 M 260.898438 80.867188 C 260.894531 80.863281 260.894531 80.863281 260.894531 80.863281 C 260.894531 80.863281 260.894531 80.863281 260.898438 80.867188 M 260.886719 80.855469 C 260.882812 80.855469 260.878906 80.851562 260.878906 80.847656 C 260.878906 80.851562 260.882812 80.855469 260.886719 80.855469 M 260.875 80.84375 C 260.871094 80.84375 260.871094 80.839844 260.867188 80.835938 C 260.871094 80.839844 260.871094 80.84375 260.875 80.84375 M 260.859375 80.832031 C 260.855469 80.828125 260.855469 80.828125 260.855469 80.828125 C 260.855469 80.828125 260.855469 80.828125 260.859375 80.832031 M 260.847656 80.820312 C 260.84375 80.820312 260.84375 80.816406 260.839844 80.8125 C 260.84375 80.816406 260.84375 80.820312 260.847656 80.820312 M 260.835938 80.808594 C 260.835938 80.808594 260.832031 80.808594 260.828125 80.804688 C 260.832031 80.808594 260.835938 80.808594 260.835938 80.808594 M 260.820312 80.796875 C 260.820312 80.796875 260.820312 80.792969 260.816406 80.789062 C 260.820312 80.792969 260.820312 80.796875 260.820312 80.796875 M 260.808594 80.789062 C 260.808594 80.785156 260.804688 80.78125 260.804688 80.78125 C 260.804688 80.78125 260.808594 80.785156 260.808594 80.789062 M 260.800781 80.777344 C 260.796875 80.773438 260.792969 80.773438 260.789062 80.769531 C 260.792969 80.773438 260.796875 80.773438 260.800781 80.777344 M 260.785156 80.765625 C 260.785156 80.761719 260.78125 80.757812 260.777344 80.757812 C 260.78125 80.757812 260.785156 80.761719 260.785156 80.765625 M 260.773438 80.753906 C 260.769531 80.753906 260.765625 80.75 260.765625 80.746094 C 260.765625 80.75 260.769531 80.753906 260.773438 80.753906 M 260.761719 80.742188 C 260.757812 80.742188 260.75 80.738281 260.75 80.738281 C 260.75 80.738281 260.757812 80.742188 260.761719 80.742188 M 260.75 80.734375 C 260.746094 80.730469 260.742188 80.726562 260.734375 80.722656 C 260.742188 80.726562 260.746094 80.730469 260.75 80.734375 M 260.734375 80.722656 C 260.730469 80.71875 260.730469 80.71875 260.722656 80.714844 C 260.730469 80.71875 260.730469 80.71875 260.734375 80.722656 M 260.722656 80.714844 C 260.71875 80.710938 260.714844 80.707031 260.710938 80.703125 C 260.714844 80.707031 260.71875 80.710938 260.722656 80.714844 M 260.710938 80.699219 C 260.707031 80.699219 260.699219 80.695312 260.695312 80.691406 C 260.699219 80.695312 260.707031 80.699219 260.710938 80.699219 M 260.695312 80.691406 C 260.695312 80.6875 260.6875 80.683594 260.683594 80.683594 C 260.6875 80.683594 260.695312 80.6875 260.695312 80.691406 M 260.683594 80.683594 C 260.207031 80.300781 259.703125 80.097656 259.1875 80.085938 C 259.703125 80.097656 260.207031 80.300781 260.683594 80.683594 "
    fill-opacity="1"
    fill-rule="nonzero"
  />
  <path
    fill="#dad4f6"
    d="M 293.039062 366.296875 L 232.351562 366.296875 L 234.011719 349.640625 L 300.585938 266.761719 C 300.667969 270.492188 300.710938 274.273438 300.710938 278.085938 C 300.710938 303.15625 298.882812 329.875 294.457031 357.800781 C 294.3125 358.71875 294.164062 359.628906 294.011719 360.546875 C 293.703125 362.421875 293.386719 364.300781 293.054688 366.1875 C 293.050781 366.222656 293.042969 366.261719 293.039062 366.296875 M 234.546875 344.339844 L 239.578125 294.015625 L 297.046875 216.402344 C 298.761719 230.855469 299.976562 246.179688 300.46875 262.269531 L 234.546875 344.339844 M 240.121094 288.5625 L 245 239.757812 L 289.339844 169.632812 C 292.113281 182.738281 294.605469 197.035156 296.546875 212.359375 L 240.121094 288.5625 M 245.582031 233.945312 L 250.734375 182.414062 L 279.003906 129.007812 C 282.25 139.84375 285.546875 152.230469 288.554688 165.980469 L 245.582031 233.945312 M 247.890625 193.140625 C 254.160156 128.828125 258.96875 80.179688 259.1875 80.085938 C 259.703125 80.097656 260.207031 80.300781 260.683594 80.683594 C 260.6875 80.683594 260.695312 80.6875 260.695312 80.691406 C 260.699219 80.695312 260.707031 80.699219 260.710938 80.699219 C 260.710938 80.699219 260.710938 80.703125 260.710938 80.703125 C 260.714844 80.707031 260.71875 80.710938 260.722656 80.714844 C 260.730469 80.71875 260.730469 80.71875 260.734375 80.722656 C 260.742188 80.726562 260.746094 80.730469 260.75 80.734375 C 260.75 80.734375 260.75 80.734375 260.75 80.738281 C 260.75 80.738281 260.757812 80.742188 260.761719 80.742188 C 260.761719 80.746094 260.761719 80.746094 260.765625 80.746094 C 260.765625 80.75 260.769531 80.753906 260.773438 80.753906 C 260.773438 80.753906 260.773438 80.753906 260.777344 80.757812 C 260.78125 80.757812 260.785156 80.761719 260.785156 80.765625 C 260.785156 80.765625 260.785156 80.769531 260.789062 80.769531 C 260.792969 80.773438 260.796875 80.773438 260.800781 80.777344 C 260.800781 80.777344 260.800781 80.777344 260.804688 80.78125 C 260.804688 80.78125 260.808594 80.785156 260.808594 80.789062 C 260.8125 80.789062 260.8125 80.789062 260.816406 80.789062 C 260.820312 80.792969 260.820312 80.796875 260.820312 80.796875 C 260.824219 80.800781 260.824219 80.800781 260.828125 80.804688 C 260.832031 80.808594 260.835938 80.808594 260.835938 80.808594 C 260.839844 80.8125 260.839844 80.8125 260.839844 80.8125 C 260.84375 80.816406 260.84375 80.820312 260.847656 80.820312 C 260.851562 80.824219 260.851562 80.824219 260.855469 80.828125 C 260.855469 80.828125 260.855469 80.828125 260.859375 80.832031 C 260.863281 80.832031 260.863281 80.835938 260.867188 80.835938 C 260.871094 80.839844 260.871094 80.84375 260.875 80.84375 C 260.875 80.84375 260.875 80.847656 260.878906 80.847656 C 260.878906 80.851562 260.882812 80.855469 260.886719 80.855469 C 260.886719 80.859375 260.890625 80.859375 260.894531 80.863281 C 260.894531 80.863281 260.894531 80.863281 260.898438 80.867188 C 260.902344 80.867188 260.902344 80.871094 260.90625 80.875 C 260.90625 80.875 260.910156 80.878906 260.910156 80.878906 C 260.910156 80.878906 260.914062 80.882812 260.917969 80.882812 C 260.917969 80.886719 260.921875 80.890625 260.921875 80.890625 C 260.925781 80.894531 260.929688 80.898438 260.929688 80.898438 C 260.929688 80.898438 260.933594 80.898438 260.933594 80.902344 C 260.9375 80.902344 260.941406 80.90625 260.945312 80.910156 C 260.945312 80.914062 260.945312 80.914062 260.945312 80.914062 C 260.949219 80.917969 260.953125 80.917969 260.957031 80.921875 C 260.957031 80.921875 260.957031 80.925781 260.960938 80.925781 C 260.964844 80.929688 260.964844 80.933594 260.96875 80.933594 C 260.96875 80.933594 260.96875 80.933594 260.972656 80.9375 C 260.976562 80.941406 260.980469 80.945312 260.984375 80.949219 C 260.984375 80.949219 260.984375 80.949219 260.984375 80.953125 C 260.988281 80.953125 260.988281 80.957031 260.992188 80.960938 C 260.996094 80.960938 260.996094 80.960938 260.996094 80.960938 C 261 80.964844 261.003906 80.96875 261.007812 80.972656 C 261.011719 80.976562 261.015625 80.980469 261.019531 80.988281 C 261.023438 80.988281 261.027344 80.992188 261.035156 81 C 261.515625 81.492188 261.964844 82.1875 262.355469 83.066406 C 265.46875 90.070312 271.566406 104.78125 278.007812 125.726562 L 251.371094 176.035156 L 260.875 80.953125 C 260.339844 80.449219 259.777344 80.195312 259.183594 80.183594 L 249.625 175.808594 L 249.015625 181.878906 L 247.890625 193.140625 "
    fill-opacity="1"
    fill-rule="nonzero"
  />
  <path
    fill="#bab1ec"
    d="M 174.472656 366.296875 L 171.496094 366.296875 L 166.5625 356.632812 C 166.546875 354.691406 166.539062 352.738281 166.542969 350.769531 L 174.472656 366.296875 "
    fill-opacity="1"
    fill-rule="nonzero"
  />
  <path
    fill="#e7e3f9"
    d="M 297.046875 216.402344 C 296.882812 215.046875 296.71875 213.695312 296.546875 212.359375 L 296.558594 212.339844 C 296.730469 213.683594 296.894531 215.03125 297.054688 216.390625 L 297.046875 216.402344 M 289.339844 169.632812 C 289.082031 168.402344 288.816406 167.1875 288.554688 165.980469 L 288.5625 165.96875 C 288.824219 167.175781 289.089844 168.386719 289.351562 169.617188 L 289.339844 169.632812 M 279.003906 129.007812 C 278.671875 127.898438 278.339844 126.804688 278.007812 125.726562 L 278.007812 125.71875 C 278.339844 126.800781 278.671875 127.890625 279.007812 129.003906 L 279.003906 129.007812 "
    fill-opacity="1"
    fill-rule="nonzero"
  />
  <path
    fill="#bab1ec"
    d="M 300.585938 266.761719 C 300.578125 266.355469 300.566406 265.960938 300.558594 265.550781 L 300.578125 265.585938 C 300.585938 265.96875 300.597656 266.355469 300.605469 266.738281 L 300.585938 266.761719 "
    fill-opacity="1"
    fill-rule="nonzero"
  />
  <path
    fill="#a89de6"
    d="M 300.578125 265.585938 L 300.558594 265.550781 C 300.53125 264.457031 300.503906 263.359375 300.46875 262.269531 L 300.480469 262.25 C 300.515625 263.359375 300.550781 264.46875 300.578125 265.585938 "
    fill-opacity="1"
    fill-rule="nonzero"
  />
  <path
    fill="#bab1ec"
    d="M 231.101562 366.296875 L 230.578125 366.296875 L 232.289062 349.167969 L 232.789062 344.171875 L 237.855469 293.523438 L 192.820312 184.324219 C 193.222656 183.171875 193.625 182.019531 194.039062 180.878906 L 238.367188 288.371094 L 243.285156 239.21875 L 211.515625 140.785156 C 212 139.855469 212.484375 138.917969 212.980469 138 L 243.839844 233.621094 L 247.890625 193.140625 C 242.703125 246.351562 236.511719 310.28125 231.101562 366.296875 "
    fill-opacity="1"
    fill-rule="nonzero"
  />
  <path
    fill="#c5bcef"
    d="M 232.351562 366.296875 L 231.101562 366.296875 C 236.511719 310.28125 242.703125 246.351562 247.890625 193.140625 L 249.015625 181.878906 L 249.625 175.808594 L 259.183594 80.183594 C 259.777344 80.195312 260.339844 80.449219 260.875 80.953125 L 251.371094 176.035156 L 278.007812 125.726562 C 278.339844 126.804688 278.671875 127.898438 279.003906 129.007812 L 250.734375 182.414062 L 245.582031 233.945312 L 288.554688 165.980469 C 288.816406 167.1875 289.082031 168.402344 289.339844 169.632812 L 245 239.757812 L 240.121094 288.5625 L 296.546875 212.359375 C 296.71875 213.695312 296.882812 215.046875 297.046875 216.402344 L 239.578125 294.015625 L 234.546875 344.339844 L 300.46875 262.269531 C 300.511719 263.765625 300.554688 265.257812 300.585938 266.761719 L 234.011719 349.640625 L 232.351562 366.296875 "
    fill-opacity="1"
    fill-rule="nonzero"
  />
  <path
    fill="#bab1ec"
    d="M 210.242188 366.296875 L 207.292969 366.296875 L 169.738281 291.640625 C 169.910156 290.039062 170.089844 288.4375 170.273438 286.832031 L 210.242188 366.296875 "
    fill-opacity="1"
    fill-rule="nonzero"
  />
  <g clip-path="url(#07e9ffd3d1)">
    <path
      fill="#cec7f2"
      d="M 26.925781 279.367188 C 26.925781 279.367188 31.609375 322.152344 54.96875 366.253906 L 141.636719 366.371094 C 99.15625 294.414062 26.925781 279.367188 26.925781 279.367188 "
      fill-opacity="1"
      fill-rule="nonzero"
    />
  </g>
  <path
    fill="#beb5ed"
    d="M 126.078125 343.890625 C 125.382812 343.027344 124.6875 342.179688 123.984375 341.339844 C 123.988281 341.332031 123.992188 341.328125 123.996094 341.320312 C 124.695312 342.160156 125.386719 343.023438 126.078125 343.890625 "
    fill-opacity="1"
    fill-rule="nonzero"
  />
  <path
    fill="#beb5ed"
    d="M 131.144531 366.355469 L 129.027344 366.355469 L 131.144531 366.355469 M 126.105469 343.925781 C 125.402344 343.054688 124.691406 342.1875 123.984375 341.339844 C 124.6875 342.179688 125.382812 343.027344 126.078125 343.890625 C 126.085938 343.902344 126.09375 343.914062 126.105469 343.925781 "
    fill-opacity="1"
    fill-rule="nonzero"
  />
  <path
    fill="#ece9fa"
    d="M 54.511719 365.386719 L 54.507812 365.386719 C 53.914062 364.265625 53.34375 363.144531 52.78125 362.023438 C 53.34375 363.144531 53.921875 364.269531 54.511719 365.386719 "
    fill-opacity="1"
    fill-rule="nonzero"
  />
  <path
    fill="#beb5ed"
    d="M 80.40625 366.289062 L 59.804688 366.257812 L 54.511719 365.386719 C 53.921875 364.269531 53.34375 363.144531 52.78125 362.023438 C 52.929688 361.945312 53.058594 361.820312 53.234375 361.820312 C 53.265625 361.820312 53.296875 361.824219 53.328125 361.832031 L 80.40625 366.289062 "
    fill-opacity="1"
    fill-rule="nonzero"
  />
  <path
    fill="#ece9fa"
    d="M 37.847656 325.765625 L 37.839844 325.765625 C 37.449219 324.578125 37.078125 323.414062 36.714844 322.25 C 36.714844 322.25 36.71875 322.25 36.71875 322.25 C 37.082031 323.40625 37.460938 324.585938 37.847656 325.765625 "
    fill-opacity="1"
    fill-rule="nonzero"
  />
  <path
    fill="#beb5ed"
    d="M 76.347656 300.496094 C 75.386719 299.910156 74.433594 299.34375 73.484375 298.789062 C 73.488281 298.78125 73.488281 298.773438 73.492188 298.769531 C 74.433594 299.316406 75.394531 299.910156 76.347656 300.492188 L 76.347656 300.496094 "
    fill-opacity="1"
    fill-rule="nonzero"
  />
  <g clip-path="url(#f3255fd589)">
    <path
      fill="#beb5ed"
      d="M 106.070312 366.324219 L 102.664062 366.316406 C 96.679688 358.863281 90.652344 351.460938 84.507812 344.203125 L 37.847656 325.765625 C 37.460938 324.585938 37.082031 323.40625 36.71875 322.25 C 36.851562 322.234375 36.96875 322.171875 37.105469 322.171875 C 37.15625 322.171875 37.210938 322.179688 37.269531 322.203125 L 80.277344 339.199219 C 63.164062 319.234375 45.46875 300.050781 27.238281 281.78125 C 27.019531 280.242188 26.925781 279.386719 26.925781 279.367188 C 27.066406 279.511719 66.761719 320.929688 104.398438 366.320312 L 106.070312 366.324219 M 76.347656 300.496094 C 75.386719 299.910156 74.433594 299.34375 73.484375 298.789062 C 74.433594 299.34375 75.386719 299.910156 76.347656 300.496094 "
      fill-opacity="1"
      fill-rule="nonzero"
    />
  </g>
  <g clip-path="url(#e3aa6b0dbf)">
    <path
      fill="#f0eefb"
      d="M 141.636719 366.371094 L 141.511719 366.371094 L 141.636719 366.371094 M 54.820312 289.15625 C 39.054688 282.0625 27.894531 279.578125 26.984375 279.382812 C 26.941406 279.371094 26.925781 279.367188 26.925781 279.367188 C 26.925781 279.367188 38.367188 281.75 54.820312 289.15625 "
      fill-opacity="1"
      fill-rule="nonzero"
    />
  </g>
  <path
    fill="#c2baee"
    d="M 56.792969 290.058594 C 56.128906 289.75 55.472656 289.453125 54.820312 289.15625 C 55.472656 289.453125 56.128906 289.75 56.792969 290.058594 "
    fill-opacity="1"
    fill-rule="nonzero"
  />
  <g clip-path="url(#ed50017500)">
    <path
      fill="#c2baee"
      d="M 141.636719 366.371094 L 141.511719 366.371094 L 131.144531 366.355469 L 126.917969 344.953125 C 126.648438 344.609375 126.378906 344.269531 126.105469 343.925781 C 131.570312 350.707031 136.796875 358.171875 141.636719 366.371094 M 129.027344 366.355469 L 106.070312 366.324219 C 100.378906 359.3125 91.054688 347.867188 86.332031 342.285156 L 76.347656 300.496094 C 91.746094 309.855469 108.695312 323.027344 123.984375 341.339844 C 123.765625 341.644531 123.648438 342.066406 123.75 342.578125 L 128.445312 366.351562 L 129.027344 366.355469 M 82.570312 337.832031 C 65.335938 317.691406 47.519531 298.339844 29.15625 279.90625 C 27.964844 279.601562 27.195312 279.425781 26.984375 279.382812 C 27.894531 279.578125 39.054688 282.0625 54.820312 289.15625 C 55.472656 289.453125 56.128906 289.75 56.792969 290.058594 C 61.96875 292.457031 67.597656 295.34375 73.484375 298.789062 C 73.429688 299.023438 73.351562 299.242188 73.425781 299.550781 L 82.570312 337.832031 "
      fill-opacity="1"
      fill-rule="nonzero"
    />
  </g>
  <path
    fill="#b3a9e9"
    d="M 131.144531 366.355469 L 129.027344 366.355469 L 128.445312 366.351562 L 123.75 342.578125 C 123.648438 342.066406 123.765625 341.644531 123.984375 341.339844 C 124.691406 342.1875 125.402344 343.054688 126.105469 343.925781 C 126.378906 344.269531 126.648438 344.609375 126.917969 344.953125 L 131.144531 366.355469 "
    fill-opacity="1"
    fill-rule="nonzero"
  />
  <g clip-path="url(#e205b8bbd8)">
    <path
      fill="#ded9f6"
      d="M 26.984375 279.382812 C 26.945312 279.371094 26.925781 279.367188 26.925781 279.367188 C 26.925781 279.367188 26.941406 279.371094 26.984375 279.382812 "
      fill-opacity="1"
      fill-rule="nonzero"
    />
  </g>
  <g clip-path="url(#45b0ab4f2c)">
    <path
      fill="#b3a9e9"
      d="M 106.070312 366.324219 L 104.398438 366.320312 C 66.761719 320.929688 27.066406 279.511719 26.925781 279.367188 C 26.925781 279.367188 26.945312 279.371094 26.984375 279.382812 C 27.195312 279.425781 27.964844 279.601562 29.15625 279.90625 C 47.519531 298.339844 65.335938 317.691406 82.570312 337.832031 L 73.425781 299.550781 C 73.351562 299.242188 73.429688 299.023438 73.484375 298.789062 C 74.433594 299.34375 75.386719 299.910156 76.347656 300.496094 L 86.332031 342.285156 C 91.054688 347.867188 100.378906 359.3125 106.070312 366.324219 "
      fill-opacity="1"
      fill-rule="nonzero"
    />
  </g>
  <path
    fill="#ffbad3"
    d="M 162.558594 156.460938 C 161.71875 156.726562 160.820312 156.261719 160.550781 155.421875 C 160.285156 154.574219 160.746094 153.675781 161.589844 153.40625 C 162.429688 153.140625 163.332031 153.605469 163.597656 154.449219 C 163.867188 155.292969 163.402344 156.191406 162.558594 156.460938 "
    fill-opacity="1"
    fill-rule="nonzero"
  />
  <path
    fill="#ffbad3"
    d="M 163.527344 162.992188 C 163.242188 162.105469 162.292969 161.613281 161.40625 161.894531 C 160.519531 162.179688 160.027344 163.128906 160.308594 164.015625 C 160.59375 164.902344 161.542969 165.398438 162.429688 165.117188 C 163.316406 164.828125 163.808594 163.878906 163.527344 162.992188 Z M 159.28125 164.339844 C 158.820312 162.890625 159.625 161.332031 161.078125 160.867188 C 162.53125 160.40625 164.089844 161.210938 164.550781 162.664062 C 165.011719 164.121094 164.207031 165.675781 162.753906 166.140625 C 161.304688 166.601562 159.746094 165.796875 159.28125 164.339844 "
    fill-opacity="1"
    fill-rule="nonzero"
  />
  <path
    fill="#ffbad3"
    d="M 193.3125 159.527344 C 193.109375 158.894531 192.433594 158.542969 191.804688 158.746094 C 191.171875 158.945312 190.820312 159.621094 191.019531 160.253906 C 191.222656 160.886719 191.898438 161.238281 192.53125 161.035156 C 193.164062 160.835938 193.511719 160.160156 193.3125 159.527344 Z M 189.363281 160.78125 C 188.871094 159.238281 189.726562 157.578125 191.273438 157.085938 C 192.820312 156.59375 194.480469 157.453125 194.96875 158.996094 C 195.460938 160.542969 194.605469 162.203125 193.058594 162.695312 C 191.511719 163.1875 189.855469 162.328125 189.363281 160.78125 "
    fill-opacity="1"
    fill-rule="nonzero"
  />
  <path
    fill="#ffbad3"
    d="M 316.628906 148.597656 C 315.902344 148.09375 315.726562 147.097656 316.230469 146.371094 C 316.738281 145.644531 317.734375 145.46875 318.460938 145.976562 C 319.183594 146.484375 319.363281 147.480469 318.855469 148.207031 C 318.347656 148.929688 317.351562 149.105469 316.628906 148.597656 "
    fill-opacity="1"
    fill-rule="nonzero"
  />
  <path
    fill="#ffbad3"
    d="M 344.03125 163.128906 C 343.308594 162.621094 343.132812 161.621094 343.636719 160.898438 C 344.144531 160.171875 345.144531 159.996094 345.867188 160.503906 C 346.589844 161.007812 346.765625 162.007812 346.261719 162.730469 C 345.757812 163.457031 344.757812 163.632812 344.03125 163.128906 "
    fill-opacity="1"
    fill-rule="nonzero"
  />
  <path
    fill="#ffbad3"
    d="M 357.089844 163.179688 C 356.160156 164.507812 354.332031 164.832031 353.003906 163.90625 C 351.675781 162.976562 351.351562 161.148438 352.28125 159.816406 C 353.210938 158.488281 355.039062 158.164062 356.367188 159.09375 C 357.691406 160.023438 358.015625 161.851562 357.089844 163.179688 "
    fill-opacity="1"
    fill-rule="nonzero"
  />
  <path
    fill="#ffbad3"
    d="M 329.035156 151.3125 C 328.503906 152.074219 327.449219 152.265625 326.6875 151.730469 C 325.921875 151.195312 325.734375 150.140625 326.269531 149.378906 C 326.800781 148.613281 327.859375 148.425781 328.621094 148.960938 C 329.382812 149.492188 329.570312 150.550781 329.035156 151.3125 Z M 329.238281 148.078125 C 327.988281 147.207031 326.261719 147.511719 325.386719 148.761719 C 324.515625 150.011719 324.820312 151.738281 326.070312 152.609375 C 327.320312 153.484375 329.046875 153.179688 329.917969 151.929688 C 330.789062 150.679688 330.484375 148.953125 329.238281 148.078125 "
    fill-opacity="1"
    fill-rule="nonzero"
  />
  <path
    fill="#ffbad3"
    d="M 358 139.050781 C 357.625 139.589844 356.878906 139.722656 356.339844 139.347656 C 355.800781 138.96875 355.671875 138.222656 356.046875 137.683594 C 356.425781 137.144531 357.167969 137.011719 357.707031 137.386719 C 358.246094 137.765625 358.378906 138.511719 358 139.050781 Z M 358.140625 136.765625 C 357.257812 136.148438 356.039062 136.363281 355.425781 137.246094 C 354.808594 138.128906 355.023438 139.347656 355.90625 139.96875 C 356.789062 140.585938 358.007812 140.371094 358.625 139.484375 C 359.242188 138.601562 359.027344 137.382812 358.140625 136.765625 "
    fill-opacity="1"
    fill-rule="nonzero"
  />
  <path
    fill="#ffbad3"
    d="M 310.707031 163.3125 C 311.085938 162.773438 310.953125 162.019531 310.410156 161.640625 C 309.867188 161.257812 309.117188 161.394531 308.738281 161.9375 C 308.355469 162.480469 308.492188 163.230469 309.03125 163.609375 C 309.574219 163.992188 310.324219 163.855469 310.707031 163.3125 Z M 307.308594 160.9375 C 308.238281 159.609375 310.078125 159.28125 311.40625 160.214844 C 312.734375 161.144531 313.0625 162.980469 312.132812 164.3125 C 311.203125 165.640625 309.367188 165.96875 308.035156 165.039062 C 306.707031 164.105469 306.382812 162.269531 307.308594 160.9375 "
    fill-opacity="1"
    fill-rule="nonzero"
  />
  <path
    fill="#ffbad3"
    d="M 75.007812 218.078125 C 75.007812 219.402344 73.933594 220.480469 72.609375 220.480469 C 71.285156 220.480469 70.210938 219.402344 70.210938 218.078125 C 70.210938 216.753906 71.285156 215.675781 72.609375 215.675781 C 73.933594 215.675781 75.007812 216.753906 75.007812 218.078125 "
    fill-opacity="1"
    fill-rule="nonzero"
  />
  <path
    fill="#ffbad3"
    d="M 77.523438 189.746094 C 77.523438 190.628906 76.808594 191.347656 75.925781 191.347656 C 75.042969 191.347656 74.324219 190.628906 74.324219 189.746094 C 74.324219 188.863281 75.042969 188.144531 75.925781 188.144531 C 76.808594 188.144531 77.523438 188.863281 77.523438 189.746094 "
    fill-opacity="1"
    fill-rule="nonzero"
  />
  <path
    fill="#ffbad3"
    d="M 69.628906 164.890625 C 68.625 164.890625 67.808594 165.710938 67.808594 166.710938 C 67.808594 167.714844 68.625 168.535156 69.628906 168.535156 C 70.632812 168.535156 71.449219 167.714844 71.449219 166.710938 C 71.449219 165.710938 70.632812 164.890625 69.628906 164.890625 Z M 69.628906 169.691406 C 67.984375 169.691406 66.648438 168.359375 66.648438 166.710938 C 66.648438 165.066406 67.984375 163.726562 69.628906 163.726562 C 71.269531 163.726562 72.609375 165.066406 72.609375 166.710938 C 72.609375 168.359375 71.269531 169.691406 69.628906 169.691406 "
    fill-opacity="1"
    fill-rule="nonzero"
  />
  <path
    fill="#ffbad3"
    d="M 56.34375 179.234375 C 55.679688 179.234375 55.140625 179.773438 55.140625 180.4375 C 55.140625 181.097656 55.679688 181.636719 56.34375 181.636719 C 57.003906 181.636719 57.542969 181.097656 57.542969 180.4375 C 57.542969 179.773438 57.003906 179.234375 56.34375 179.234375 Z M 56.34375 183.378906 C 54.722656 183.378906 53.402344 182.058594 53.402344 180.4375 C 53.402344 178.8125 54.722656 177.492188 56.34375 177.492188 C 57.964844 177.492188 59.285156 178.8125 59.285156 180.4375 C 59.285156 182.058594 57.964844 183.378906 56.34375 183.378906 "
    fill-opacity="1"
    fill-rule="nonzero"
  />
  <path
    fill="#ffbad3"
    d="M 79.785156 175.199219 C 79.785156 176.925781 78.382812 178.328125 76.652344 178.328125 C 74.925781 178.328125 73.523438 176.925781 73.523438 175.199219 C 73.523438 173.46875 74.925781 172.070312 76.652344 172.070312 C 78.382812 172.070312 79.785156 173.46875 79.785156 175.199219 "
    fill-opacity="1"
    fill-rule="nonzero"
  />
  <path
    fill="#8a65dc"
    d="M 209.929688 354.050781 L 209.929688 365.59375 C 209.929688 365.929688 209.65625 366.203125 209.320312 366.203125 L 197.785156 366.203125 C 197.445312 366.203125 197.175781 365.929688 197.175781 365.59375 L 197.175781 354.050781 C 197.175781 353.714844 197.445312 353.441406 197.785156 353.441406 L 209.320312 353.441406 C 209.65625 353.441406 209.929688 353.714844 209.929688 354.050781 "
    fill-opacity="1"
    fill-rule="nonzero"
  />
  <path
    fill="#87bbf9"
    d="M 209.929688 340.75 L 209.929688 352.289062 C 209.929688 352.628906 209.65625 352.902344 209.320312 352.902344 L 197.785156 352.902344 C 197.445312 352.902344 197.175781 352.628906 197.175781 352.289062 L 197.175781 340.75 C 197.175781 340.414062 197.445312 340.140625 197.785156 340.140625 L 209.320312 340.140625 C 209.65625 340.140625 209.929688 340.414062 209.929688 340.75 "
    fill-opacity="1"
    fill-rule="nonzero"
  />
  <path
    fill="#f04d65"
    d="M 203.570312 347.460938 L 203.570312 365.261719 C 203.570312 365.785156 203.144531 366.203125 202.625 366.203125 L 184.835938 366.203125 C 184.316406 366.203125 183.894531 365.785156 183.894531 365.261719 L 183.894531 347.460938 C 183.894531 346.941406 184.316406 346.523438 184.835938 346.523438 L 202.625 346.523438 C 203.144531 346.523438 203.570312 346.941406 203.570312 347.460938 "
    fill-opacity="1"
    fill-rule="nonzero"
  />
  <path
    fill="#ffffff"
    d="M 223.226562 340.75 L 223.226562 352.289062 C 223.226562 352.628906 222.949219 352.902344 222.613281 352.902344 L 211.078125 352.902344 C 210.742188 352.902344 210.46875 352.628906 210.46875 352.289062 L 210.46875 340.75 C 210.46875 340.414062 210.742188 340.140625 211.078125 340.140625 L 222.613281 340.140625 C 222.949219 340.140625 223.226562 340.414062 223.226562 340.75 "
    fill-opacity="1"
    fill-rule="nonzero"
  />
  <path
    fill="#ffffff"
    d="M 209.945312 327.464844 L 209.945312 339.007812 C 209.945312 339.34375 209.671875 339.617188 209.335938 339.617188 L 197.800781 339.617188 C 197.464844 339.617188 197.191406 339.34375 197.191406 339.007812 L 197.191406 327.464844 C 197.191406 327.128906 197.464844 326.855469 197.800781 326.855469 L 209.335938 326.855469 C 209.671875 326.855469 209.945312 327.128906 209.945312 327.464844 "
    fill-opacity="1"
    fill-rule="nonzero"
  />
  <path
    fill="#87bbf9"
    d="M 223.226562 327.449219 L 223.226562 338.992188 C 223.226562 339.328125 222.949219 339.601562 222.613281 339.601562 L 211.078125 339.601562 C 210.742188 339.601562 210.46875 339.328125 210.46875 338.992188 L 210.46875 327.449219 C 210.46875 327.113281 210.742188 326.835938 211.078125 326.835938 L 222.613281 326.835938 C 222.949219 326.835938 223.226562 327.113281 223.226562 327.449219 "
    fill-opacity="1"
    fill-rule="nonzero"
  />
  <path
    fill="#ffffff"
    d="M 211.078125 353.441406 L 222.613281 353.441406 C 222.949219 353.441406 223.226562 353.714844 223.226562 354.050781 L 223.226562 365.59375 C 223.226562 365.929688 222.949219 366.203125 222.613281 366.203125 L 211.078125 366.203125 C 210.742188 366.203125 210.46875 365.929688 210.46875 365.59375 L 210.46875 354.050781 C 210.46875 353.714844 210.742188 353.441406 211.078125 353.441406 "
    fill-opacity="1"
    fill-rule="nonzero"
  />
  <path
    fill="#f04d65"
    d="M 236.519531 340.75 L 236.519531 352.289062 C 236.519531 352.628906 236.246094 352.902344 235.910156 352.902344 L 224.371094 352.902344 C 224.039062 352.902344 223.765625 352.628906 223.765625 352.289062 L 223.765625 340.75 C 223.765625 340.414062 224.039062 340.140625 224.371094 340.140625 L 235.910156 340.140625 C 236.246094 340.140625 236.519531 340.414062 236.519531 340.75 "
    fill-opacity="1"
    fill-rule="nonzero"
  />
  <path
    fill="#8a65dc"
    d="M 236.519531 327.449219 L 236.519531 338.992188 C 236.519531 339.328125 236.246094 339.601562 235.910156 339.601562 L 224.371094 339.601562 C 224.039062 339.601562 223.765625 339.328125 223.765625 338.992188 L 223.765625 327.449219 C 223.765625 327.113281 224.039062 326.835938 224.371094 326.835938 L 235.910156 326.835938 C 236.246094 326.835938 236.519531 327.113281 236.519531 327.449219 "
    fill-opacity="1"
    fill-rule="nonzero"
  />
  <path
    fill="#8a65dc"
    d="M 224.371094 353.441406 L 235.910156 353.441406 C 236.246094 353.441406 236.519531 353.714844 236.519531 354.050781 L 236.519531 365.59375 C 236.519531 365.929688 236.246094 366.203125 235.910156 366.203125 L 224.371094 366.203125 C 224.039062 366.203125 223.765625 365.929688 223.765625 365.59375 L 223.765625 354.050781 C 223.765625 353.714844 224.039062 353.441406 224.371094 353.441406 "
    fill-opacity="1"
    fill-rule="nonzero"
  />
  <path
    fill="#ffffff"
    d="M 310.109375 366.179688 L 255.007812 366.179688 C 254.425781 366.179688 253.953125 365.707031 253.953125 365.125 L 253.953125 329.570312 C 253.953125 328.988281 254.425781 328.515625 255.007812 328.515625 L 310.109375 328.515625 C 310.695312 328.515625 311.167969 328.988281 311.167969 329.570312 L 311.167969 365.125 C 311.167969 365.707031 310.695312 366.179688 310.109375 366.179688 "
    fill-opacity="1"
    fill-rule="nonzero"
  />
  <path
    fill="#8a65dc"
    d="M 306.816406 339.441406 L 282.558594 339.441406 L 282.558594 333.65625 L 306.816406 333.65625 L 306.816406 339.441406 "
    fill-opacity="1"
    fill-rule="nonzero"
  />
  <path
    fill="#8a65dc"
    d="M 306.816406 349.964844 L 282.558594 349.964844 L 282.558594 344.179688 L 306.816406 344.179688 L 306.816406 349.964844 "
    fill-opacity="1"
    fill-rule="nonzero"
  />
  <path
    fill="#f04d65"
    d="M 278.421875 349.695312 L 258.890625 349.695312 L 258.890625 333.65625 L 278.421875 333.65625 L 278.421875 349.695312 "
    fill-opacity="1"
    fill-rule="nonzero"
  />
  <path
    fill="#8a65dc"
    d="M 306.816406 361.167969 L 258.890625 361.167969 L 258.890625 354.816406 L 306.816406 354.816406 L 306.816406 361.167969 "
    fill-opacity="1"
    fill-rule="nonzero"
  />
  <path
    fill="#ffffff"
    d="M 323.019531 306.917969 L 168.054688 306.917969 C 166.261719 306.917969 164.808594 305.457031 164.808594 303.664062 L 164.808594 181.9375 C 164.808594 180.140625 166.261719 178.683594 168.054688 178.683594 L 323.019531 178.683594 C 324.8125 178.683594 326.269531 180.140625 326.269531 181.9375 L 326.269531 303.664062 C 326.269531 305.457031 324.8125 306.917969 323.019531 306.917969 "
    fill-opacity="1"
    fill-rule="nonzero"
  />
  <path
    fill="#87bbf9"
    d="M 323.019531 178.683594 L 168.054688 178.683594 C 166.261719 178.683594 165.1875 180.394531 165.1875 181.601562 L 165.1875 192.359375 L 326.375 192.359375 L 326.375 181.601562 C 326.375 180.394531 324.8125 178.683594 323.019531 178.683594 "
    fill-opacity="1"
    fill-rule="nonzero"
  />
  <path
    fill="#f04d65"
    d="M 212.96875 250.457031 L 197.660156 250.457031 C 195.089844 250.457031 193.007812 248.375 193.007812 245.800781 C 193.007812 243.234375 195.089844 241.152344 197.660156 241.152344 L 212.96875 241.152344 C 215.539062 241.152344 217.621094 243.234375 217.621094 245.800781 C 217.621094 248.375 215.539062 250.457031 212.96875 250.457031 "
    fill-opacity="1"
    fill-rule="nonzero"
  />
  <path
    fill="#f04d65"
    d="M 214.074219 274.976562 L 196.550781 274.976562 C 194.59375 274.976562 193.007812 273.386719 193.007812 271.425781 L 193.007812 271.25 C 193.007812 269.289062 194.59375 267.699219 196.550781 267.699219 L 214.074219 267.699219 C 216.03125 267.699219 217.621094 269.289062 217.621094 271.25 L 217.621094 271.425781 C 217.621094 273.386719 216.03125 274.976562 214.074219 274.976562 "
    fill-opacity="1"
    fill-rule="nonzero"
  />
  <path
    fill="#87bbf9"
    d="M 233.882812 263.855469 L 176.742188 263.855469 C 174.355469 263.855469 172.417969 261.914062 172.417969 259.527344 C 172.417969 257.136719 174.355469 255.203125 176.742188 255.203125 L 233.882812 255.203125 C 236.273438 255.203125 238.207031 257.136719 238.207031 259.527344 C 238.207031 261.914062 236.273438 263.855469 233.882812 263.855469 "
    fill-opacity="1"
    fill-rule="nonzero"
  />
  <path
    fill="#f04d65"
    d="M 214.074219 298.601562 L 196.550781 298.601562 C 194.59375 298.601562 193.007812 297.011719 193.007812 295.050781 L 193.007812 294.871094 C 193.007812 292.914062 194.59375 291.324219 196.550781 291.324219 L 214.074219 291.324219 C 216.03125 291.324219 217.621094 292.914062 217.621094 294.871094 L 217.621094 295.050781 C 217.621094 297.011719 216.03125 298.601562 214.074219 298.601562 "
    fill-opacity="1"
    fill-rule="nonzero"
  />
  <path
    fill="#87bbf9"
    d="M 233.882812 287.476562 L 176.742188 287.476562 C 174.355469 287.476562 172.417969 285.539062 172.417969 283.152344 C 172.417969 280.761719 174.355469 278.824219 176.742188 278.824219 L 233.882812 278.824219 C 236.273438 278.824219 238.207031 280.761719 238.207031 283.152344 C 238.207031 285.539062 236.273438 287.476562 233.882812 287.476562 "
    fill-opacity="1"
    fill-rule="nonzero"
  />
  <path
    fill="#8a65dc"
    d="M 315.667969 261.71875 L 255.21875 261.71875 L 255.21875 255.203125 L 315.667969 255.203125 L 315.667969 261.71875 "
    fill-opacity="1"
    fill-rule="nonzero"
  />
  <path
    fill="#8a65dc"
    d="M 315.667969 274.015625 L 255.21875 274.015625 L 255.21875 267.496094 L 315.667969 267.496094 L 315.667969 274.015625 "
    fill-opacity="1"
    fill-rule="nonzero"
  />
  <path
    fill="#8a65dc"
    d="M 315.667969 286.304688 L 255.21875 286.304688 L 255.21875 279.789062 L 315.667969 279.789062 L 315.667969 286.304688 "
    fill-opacity="1"
    fill-rule="nonzero"
  />
  <path
    fill="#8a65dc"
    d="M 315.667969 298.601562 L 255.21875 298.601562 L 255.21875 292.085938 L 315.667969 292.085938 L 315.667969 298.601562 "
    fill-opacity="1"
    fill-rule="nonzero"
  />
  <path
    fill="#f4f4f4"
    d="M 313.460938 242.800781 L 257.425781 242.800781 C 256.207031 242.800781 255.21875 241.8125 255.21875 240.59375 L 255.21875 205.359375 C 255.21875 204.140625 256.207031 203.152344 257.425781 203.152344 L 313.460938 203.152344 C 314.679688 203.152344 315.667969 204.140625 315.667969 205.359375 L 315.667969 240.59375 C 315.667969 241.8125 314.679688 242.800781 313.460938 242.800781 "
    fill-opacity="1"
    fill-rule="nonzero"
  />
  <path
    fill="#8a65dc"
    d="M 257.425781 242.800781 L 313.460938 242.800781 C 314.679688 242.800781 315.667969 241.8125 315.667969 240.59375 L 315.667969 227.3125 L 305.945312 221.085938 L 291.296875 227.617188 L 268.472656 214.554688 L 255.21875 223.820312 L 255.21875 240.59375 C 255.21875 241.8125 256.207031 242.800781 257.425781 242.800781 "
    fill-opacity="1"
    fill-rule="nonzero"
  />
  <path
    fill="#8a65dc"
    d="M 298.589844 214.554688 C 298.589844 217.457031 296.234375 219.8125 293.328125 219.8125 C 290.429688 219.8125 288.078125 217.457031 288.078125 214.554688 C 288.078125 211.652344 290.429688 209.296875 293.328125 209.296875 C 296.234375 209.296875 298.589844 211.652344 298.589844 214.554688 "
    fill-opacity="1"
    fill-rule="nonzero"
  />
  <path
    fill="#f7f7f7"
    d="M 268.507812 258.636719 L 226.328125 258.636719 C 224.964844 258.636719 223.859375 257.53125 223.859375 256.167969 L 223.859375 226.582031 C 223.859375 225.21875 224.964844 224.109375 226.328125 224.109375 L 268.507812 224.109375 C 269.871094 224.109375 270.976562 225.21875 270.976562 226.582031 L 270.976562 256.167969 C 270.976562 257.53125 269.871094 258.636719 268.507812 258.636719 "
    fill-opacity="1"
    fill-rule="nonzero"
  />
  <path
    fill="#f04d65"
    d="M 235.605469 230.882812 L 235.605469 250.808594 C 235.605469 252.628906 237.542969 253.800781 239.152344 252.945312 L 257.945312 242.984375 C 259.664062 242.074219 259.664062 239.621094 257.945312 238.710938 L 239.152344 228.75 C 237.542969 227.894531 235.605469 229.0625 235.605469 230.882812 "
    fill-opacity="1"
    fill-rule="nonzero"
  />
  <path
    fill="#87bbf9"
    d="M 262.101562 358.03125 C 262.101562 362.535156 258.453125 366.183594 253.953125 366.183594 C 249.449219 366.183594 245.800781 362.535156 245.800781 358.03125 C 245.800781 353.527344 249.449219 349.875 253.953125 349.875 C 258.453125 349.875 262.101562 353.527344 262.101562 358.03125 "
    fill-opacity="1"
    fill-rule="nonzero"
  />
  <path
    fill="#f4f4f4"
    d="M 227.417969 237.753906 L 158.644531 237.753906 C 157.410156 237.753906 156.40625 236.75 156.40625 235.511719 L 156.40625 194.34375 C 156.40625 193.109375 157.410156 192.105469 158.644531 192.105469 L 227.417969 192.105469 C 228.65625 192.105469 229.660156 193.109375 229.660156 194.34375 L 229.660156 235.511719 C 229.660156 236.75 228.65625 237.753906 227.417969 237.753906 "
    fill-opacity="1"
    fill-rule="nonzero"
  />
  <path
    fill="#a4cbf9"
    d="M 227.417969 192.105469 L 158.644531 192.105469 C 157.410156 192.105469 156.40625 193.109375 156.40625 194.34375 L 156.40625 197.269531 L 229.660156 197.269531 L 229.660156 194.34375 C 229.660156 193.109375 228.65625 192.105469 227.417969 192.105469 "
    fill-opacity="1"
    fill-rule="nonzero"
  />
  <path
    fill="#87bbf9"
    d="M 193.691406 200.792969 L 167.023438 200.792969 C 166.773438 200.792969 166.5625 201.027344 166.5625 201.3125 C 166.5625 201.597656 166.773438 201.832031 167.023438 201.832031 L 193.691406 201.832031 C 193.949219 201.832031 194.15625 201.601562 194.15625 201.3125 C 194.15625 201.023438 193.949219 200.792969 193.691406 200.792969 "
    fill-opacity="1"
    fill-rule="nonzero"
  />
  <path
    fill="#f04d65"
    d="M 167.023438 203.964844 C 166.773438 203.964844 166.5625 203.734375 166.5625 203.449219 C 166.5625 203.167969 166.773438 202.933594 167.023438 202.933594 L 194.855469 202.933594 C 195.117188 202.933594 195.320312 203.160156 195.320312 203.449219 C 195.320312 203.742188 195.117188 203.964844 194.855469 203.964844 L 167.023438 203.964844 "
    fill-opacity="1"
    fill-rule="nonzero"
  />
  <path
    fill="#f04d65"
    d="M 213.933594 203.964844 C 213.671875 203.964844 213.46875 203.742188 213.46875 203.449219 C 213.46875 203.160156 213.671875 202.933594 213.933594 202.933594 L 223.984375 202.933594 C 224.25 202.933594 224.453125 203.160156 224.453125 203.449219 C 224.453125 203.742188 224.25 203.964844 223.984375 203.964844 L 213.933594 203.964844 "
    fill-opacity="1"
    fill-rule="nonzero"
  />
  <path
    fill="#87bbf9"
    d="M 167.023438 206.105469 C 166.765625 206.105469 166.5625 205.875 166.5625 205.585938 C 166.5625 205.300781 166.773438 205.074219 167.023438 205.074219 L 205.835938 205.074219 C 206.09375 205.074219 206.304688 205.300781 206.304688 205.585938 C 206.304688 205.875 206.097656 206.105469 205.835938 206.105469 L 167.023438 206.105469 "
    fill-opacity="1"
    fill-rule="nonzero"
  />
  <path
    fill="#87bbf9"
    d="M 167.023438 208.242188 C 166.765625 208.242188 166.5625 208.015625 166.5625 207.726562 C 166.5625 207.4375 166.765625 207.207031 167.023438 207.207031 L 199.160156 207.207031 C 199.421875 207.207031 199.625 207.4375 199.625 207.726562 C 199.625 208.015625 199.421875 208.242188 199.160156 208.242188 L 167.023438 208.242188 "
    fill-opacity="1"
    fill-rule="nonzero"
  />
  <path
    fill="#87bbf9"
    d="M 213.257812 200.796875 L 195.625 200.796875 C 195.367188 200.796875 195.160156 201.027344 195.160156 201.3125 C 195.160156 201.597656 195.367188 201.832031 195.625 201.832031 L 213.257812 201.832031 C 213.515625 201.832031 213.726562 201.597656 213.726562 201.3125 C 213.726562 201.027344 213.515625 200.796875 213.257812 200.796875 "
    fill-opacity="1"
    fill-rule="nonzero"
  />
  <path
    fill="#87bbf9"
    d="M 196.851562 203.964844 C 196.597656 203.964844 196.386719 203.738281 196.386719 203.453125 C 196.386719 203.167969 196.597656 202.933594 196.851562 202.933594 L 212.03125 202.933594 C 212.285156 202.933594 212.496094 203.167969 212.496094 203.453125 C 212.496094 203.738281 212.285156 203.964844 212.03125 203.964844 L 196.851562 203.964844 "
    fill-opacity="1"
    fill-rule="nonzero"
  />
  <path
    fill="#f04d65"
    d="M 167.023438 210.378906 C 166.773438 210.378906 166.5625 210.148438 166.5625 209.863281 C 166.5625 209.578125 166.773438 209.347656 167.023438 209.347656 L 171.953125 209.347656 C 172.214844 209.347656 172.417969 209.574219 172.417969 209.863281 C 172.417969 210.152344 172.214844 210.378906 171.953125 210.378906 L 167.023438 210.378906 "
    fill-opacity="1"
    fill-rule="nonzero"
  />
  <path
    fill="#f04d65"
    d="M 173.871094 210.378906 C 173.613281 210.378906 173.402344 210.148438 173.402344 209.863281 C 173.402344 209.578125 173.613281 209.347656 173.871094 209.347656 L 212.136719 209.347656 C 212.390625 209.347656 212.597656 209.578125 212.597656 209.863281 C 212.597656 210.148438 212.390625 210.378906 212.136719 210.378906 L 173.871094 210.378906 "
    fill-opacity="1"
    fill-rule="nonzero"
  />
  <path
    fill="#87bbf9"
    d="M 167.023438 212.519531 C 166.765625 212.519531 166.5625 212.289062 166.5625 212 C 166.5625 211.714844 166.773438 211.484375 167.023438 211.484375 L 196.695312 211.484375 C 196.953125 211.484375 197.164062 211.714844 197.164062 212 C 197.164062 212.285156 196.953125 212.519531 196.695312 212.519531 L 167.023438 212.519531 "
    fill-opacity="1"
    fill-rule="nonzero"
  />
  <path
    fill="#f04d65"
    d="M 167.023438 214.652344 C 166.765625 214.652344 166.5625 214.429688 166.5625 214.140625 C 166.5625 213.855469 166.773438 213.621094 167.023438 213.621094 L 191.703125 213.621094 C 191.964844 213.621094 192.164062 213.847656 192.164062 214.140625 C 192.164062 214.429688 191.964844 214.652344 191.703125 214.652344 L 167.023438 214.652344 "
    fill-opacity="1"
    fill-rule="nonzero"
  />
  <path
    fill="#87bbf9"
    d="M 193.714844 214.652344 C 193.453125 214.652344 193.246094 214.429688 193.246094 214.140625 C 193.246094 213.847656 193.453125 213.621094 193.714844 213.621094 L 200.617188 213.621094 C 200.878906 213.621094 201.078125 213.847656 201.078125 214.140625 C 201.078125 214.429688 200.878906 214.652344 200.617188 214.652344 L 193.714844 214.652344 "
    fill-opacity="1"
    fill-rule="nonzero"
  />
  <path
    fill="#87bbf9"
    d="M 214.003906 210.382812 C 213.746094 210.382812 213.542969 210.148438 213.542969 209.863281 C 213.542969 209.574219 213.742188 209.347656 214.003906 209.347656 L 220.90625 209.347656 C 221.164062 209.347656 221.371094 209.574219 221.371094 209.863281 C 221.371094 210.15625 221.164062 210.382812 220.90625 210.382812 L 214.003906 210.382812 "
    fill-opacity="1"
    fill-rule="nonzero"
  />
  <path
    fill="#87bbf9"
    d="M 169.25 218.929688 C 168.988281 218.929688 168.785156 218.703125 168.785156 218.414062 C 168.785156 218.125 168.988281 217.894531 169.25 217.894531 L 208.359375 217.894531 C 208.617188 217.894531 208.828125 218.125 208.828125 218.414062 C 208.828125 218.699219 208.617188 218.929688 208.359375 218.929688 L 169.25 218.929688 "
    fill-opacity="1"
    fill-rule="nonzero"
  />
  <path
    fill="#87bbf9"
    d="M 207.757812 221.066406 C 207.5 221.066406 207.292969 220.839844 207.292969 220.550781 C 207.292969 220.261719 207.5 220.035156 207.757812 220.035156 L 217.570312 220.035156 C 217.835938 220.035156 218.039062 220.261719 218.039062 220.550781 C 218.039062 220.839844 217.835938 221.066406 217.570312 221.066406 L 207.757812 221.066406 "
    fill-opacity="1"
    fill-rule="nonzero"
  />
  <path
    fill="#87bbf9"
    d="M 219.527344 221.066406 C 219.265625 221.066406 219.0625 220.839844 219.0625 220.550781 C 219.0625 220.261719 219.265625 220.035156 219.527344 220.035156 L 226.71875 220.035156 C 226.984375 220.035156 227.183594 220.261719 227.183594 220.550781 C 227.183594 220.839844 226.984375 221.066406 226.71875 221.066406 L 219.527344 221.066406 "
    fill-opacity="1"
    fill-rule="nonzero"
  />
  <path
    fill="#f04d65"
    d="M 169.25 221.070312 C 168.988281 221.070312 168.785156 220.84375 168.785156 220.550781 C 168.785156 220.257812 168.988281 220.035156 169.25 220.035156 L 205.835938 220.035156 C 206.09375 220.035156 206.304688 220.265625 206.304688 220.550781 C 206.304688 220.835938 206.09375 221.070312 205.835938 221.070312 L 169.25 221.070312 "
    fill-opacity="1"
    fill-rule="nonzero"
  />
  <path
    fill="#87bbf9"
    d="M 169.25 223.207031 C 168.988281 223.207031 168.785156 222.976562 168.785156 222.6875 C 168.785156 222.394531 168.988281 222.171875 169.25 222.171875 L 206.039062 222.171875 C 206.296875 222.171875 206.503906 222.402344 206.503906 222.6875 C 206.503906 222.976562 206.300781 223.207031 206.039062 223.207031 L 169.25 223.207031 "
    fill-opacity="1"
    fill-rule="nonzero"
  />
  <path
    fill="#87bbf9"
    d="M 164.707031 207.761719 L 160.3125 207.761719 L 160.3125 200.035156 C 160.3125 199.875 160.441406 199.746094 160.601562 199.746094 C 160.765625 199.746094 160.898438 199.875 160.898438 200.035156 L 160.898438 207.175781 L 164.707031 207.175781 C 164.867188 207.175781 164.996094 207.308594 164.996094 207.472656 C 164.996094 207.632812 164.867188 207.761719 164.707031 207.761719 "
    fill-opacity="1"
    fill-rule="nonzero"
  />
  <path
    fill="#87bbf9"
    d="M 165.960938 218.71875 L 162.363281 218.71875 L 162.363281 209.851562 C 162.363281 209.6875 162.496094 209.554688 162.65625 209.554688 C 162.816406 209.554688 162.945312 209.6875 162.945312 209.851562 L 162.945312 218.132812 L 165.960938 218.132812 C 166.121094 218.132812 166.253906 218.265625 166.253906 218.425781 C 166.253906 218.589844 166.121094 218.71875 165.960938 218.71875 "
    fill-opacity="1"
    fill-rule="nonzero"
  />
  <path
    fill="#87bbf9"
    d="M 172.152344 227.003906 C 171.882812 227.003906 171.660156 226.753906 171.660156 226.453125 C 171.660156 226.152344 171.882812 225.90625 172.152344 225.90625 L 199.910156 225.90625 C 200.179688 225.90625 200.402344 226.152344 200.402344 226.453125 C 200.402344 226.753906 200.179688 227.003906 199.910156 227.003906 L 172.152344 227.003906 "
    fill-opacity="1"
    fill-rule="nonzero"
  />
  <path
    fill="#f04d65"
    d="M 172.152344 229.40625 C 171.882812 229.40625 171.660156 229.15625 171.660156 228.855469 C 171.660156 228.554688 171.882812 228.304688 172.152344 228.304688 L 201.21875 228.304688 C 201.492188 228.304688 201.707031 228.546875 201.707031 228.855469 C 201.707031 229.164062 201.492188 229.40625 201.21875 229.40625 L 172.152344 229.40625 "
    fill-opacity="1"
    fill-rule="nonzero"
  />
  <path
    fill="#f04d65"
    d="M 172.152344 231.804688 C 171.882812 231.804688 171.660156 231.558594 171.660156 231.257812 C 171.660156 230.953125 171.882812 230.707031 172.152344 230.707031 L 220.703125 230.707031 C 220.980469 230.707031 221.195312 230.949219 221.195312 231.257812 C 221.195312 231.566406 220.980469 231.804688 220.703125 231.804688 L 172.152344 231.804688 "
    fill-opacity="1"
    fill-rule="nonzero"
  />
  <path
    fill="#87bbf9"
    d="M 172.152344 234.207031 C 171.878906 234.207031 171.660156 233.964844 171.660156 233.65625 C 171.660156 233.351562 171.882812 233.105469 172.152344 233.105469 L 200.992188 233.105469 C 201.261719 233.105469 201.484375 233.351562 201.484375 233.65625 C 201.484375 233.960938 201.261719 234.207031 200.992188 234.207031 L 172.152344 234.207031 "
    fill-opacity="1"
    fill-rule="nonzero"
  />
  <path
    fill="#87bbf9"
    d="M 201.90625 227.003906 C 201.636719 227.003906 201.417969 226.753906 201.417969 226.453125 C 201.417969 226.152344 201.636719 225.910156 201.90625 225.910156 L 215.601562 225.910156 C 215.871094 225.910156 216.09375 226.152344 216.09375 226.453125 C 216.09375 226.753906 215.871094 227.003906 215.601562 227.003906 L 201.90625 227.003906 "
    fill-opacity="1"
    fill-rule="nonzero"
  />
  <path
    fill="#87bbf9"
    d="M 203.332031 229.40625 C 203.054688 229.40625 202.839844 229.164062 202.839844 228.855469 C 202.839844 228.554688 203.0625 228.304688 203.332031 228.304688 L 214.261719 228.304688 C 214.535156 228.304688 214.75 228.546875 214.75 228.855469 C 214.75 229.164062 214.535156 229.40625 214.261719 229.40625 L 203.332031 229.40625 "
    fill-opacity="1"
    fill-rule="nonzero"
  />
  <path
    fill="#87bbf9"
    d="M 169.703125 233.949219 L 164.808594 233.949219 L 164.808594 222.316406 C 164.808594 222.15625 164.941406 222.023438 165.101562 222.023438 C 165.261719 222.023438 165.390625 222.15625 165.390625 222.316406 L 165.390625 233.367188 L 169.703125 233.367188 C 169.867188 233.367188 170 233.496094 170 233.65625 C 170 233.820312 169.867188 233.949219 169.703125 233.949219 "
    fill-opacity="1"
    fill-rule="nonzero"
  />
  <path
    fill="#996043"
    d="M 158.605469 190.5 C 160.101562 190.058594 160.492188 191.082031 160.492188 191.082031 C 160.953125 190.808594 161.71875 191.066406 162.058594 191.464844 C 162.539062 192.027344 160.429688 193.003906 160.074219 194.574219 C 159.84375 195.601562 158.925781 196.4375 158.328125 196.796875 C 156.355469 197.988281 154.375 196.242188 154.375 196.242188 C 154.535156 195.664062 154.484375 194.410156 154.773438 193.203125 C 155.003906 192.246094 157.191406 190.917969 158.605469 190.5 "
    fill-opacity="1"
    fill-rule="nonzero"
  />
  <path
    fill="#996043"
    d="M 123.445312 210.195312 L 124.578125 220.261719 C 124.578125 220.261719 125.269531 220.351562 125.46875 220.769531 C 126.4375 222.828125 129.238281 229.0625 128.117188 230.195312 C 127.242188 231.070312 116.289062 221.636719 116.289062 221.636719 L 117.558594 220.71875 L 118.945312 208.578125 L 123.445312 210.195312 "
    fill-opacity="1"
    fill-rule="nonzero"
  />
  <path
    fill="#494a57"
    d="M 125.476562 183.546875 C 118.242188 183.445312 118.917969 189.824219 110.828125 194.042969 C 106.667969 196.214844 113.371094 208.558594 117.523438 212.371094 C 118.03125 212.835938 118.203125 213.316406 118.644531 212.863281 C 124.058594 207.285156 125.625 202.238281 126.386719 200.121094 C 130.03125 189.929688 125.949219 183.550781 125.476562 183.546875 "
    fill-opacity="1"
    fill-rule="nonzero"
  />
  <path
    fill="#9e6845"
    d="M 116.429688 202.609375 C 116.878906 200.957031 118.519531 201.09375 119.71875 201.914062 C 122.160156 207.429688 124.144531 198.613281 124.675781 195.933594 C 124.761719 195.488281 126.125 194.617188 126.402344 194.976562 C 127.324219 196.15625 128.992188 199.121094 129.613281 204.070312 L 129.613281 204.054688 C 130.253906 205.457031 131.277344 207.019531 131.730469 207.683594 C 131.851562 207.863281 131.789062 208.105469 131.597656 208.21875 L 129.660156 209.382812 C 129.167969 213.679688 127.53125 216.78125 126.394531 216.519531 C 125.210938 216.25 122.214844 213.617188 120.664062 209.628906 C 117.714844 207.300781 115.851562 204.734375 116.429688 202.609375 "
    fill-opacity="1"
    fill-rule="nonzero"
  />
  <path
    fill="#ffffff"
    d="M 157.457031 197.558594 C 157.710938 196.160156 155.070312 194.503906 154.0625 195.675781 C 153.332031 196.519531 145.757812 206.988281 141.3125 214.730469 C 135.371094 215.277344 119.539062 220.078125 117.34375 222.417969 C 114.074219 225.898438 118.886719 231.3125 125.265625 228.882812 C 126.183594 228.535156 145.011719 223.242188 147.257812 218.578125 C 147.875 217.308594 156.621094 202.125 157.457031 197.558594 "
    fill-opacity="1"
    fill-rule="nonzero"
  />
  <path
    fill="#f04d65"
    d="M 115.164062 358.992188 C 115.492188 359.59375 115.042969 361.902344 116.105469 362.078125 C 123.320312 363.265625 126.285156 364.722656 125.128906 366.363281 L 109.5 366.371094 C 108.195312 362.679688 110.765625 359.398438 110.765625 359.398438 L 115.164062 358.992188 "
    fill-opacity="1"
    fill-rule="nonzero"
  />
  <path
    fill="#f04d65"
    d="M 144.023438 359.191406 C 144.355469 359.796875 145.902344 361.902344 146.964844 362.078125 C 154.175781 363.265625 157.140625 364.722656 155.984375 366.363281 L 139.976562 366.371094 C 139.050781 362.867188 139.628906 359.601562 139.628906 359.601562 L 144.023438 359.191406 "
    fill-opacity="1"
    fill-rule="nonzero"
  />
  <path
    fill="#494a57"
    d="M 110.878906 326.257812 C 112.410156 318.78125 111.773438 276.28125 116.949219 268.835938 L 132.039062 283.566406 C 132.039062 283.566406 122.230469 322.617188 121.289062 327.398438 C 120.578125 331.007812 116 361.65625 116 361.65625 C 111.542969 362.359375 109.601562 360.648438 109.601562 360.648438 C 109.601562 360.648438 109.128906 350.339844 109.316406 338.378906 C 109.429688 330.972656 110.378906 328.710938 110.878906 326.257812 "
    fill-opacity="1"
    fill-rule="nonzero"
  />
  <path
    fill="#585a69"
    d="M 114.457031 278.5625 C 114.332031 276.054688 115.363281 270.515625 116.949219 268.835938 C 120.488281 265.101562 131.015625 265.855469 131.3125 268.390625 C 132.039062 274.648438 138.320312 317.261719 138.570312 319.050781 C 138.820312 320.847656 145.480469 361.015625 145.480469 361.015625 C 145.480469 361.015625 141.132812 362.417969 138.933594 361.699219 C 137.863281 361.351562 131.367188 336.835938 130.296875 332.222656 C 129.179688 327.421875 129.542969 324.019531 129.664062 322.886719 C 129.734375 322.21875 115 289.324219 114.457031 278.5625 "
    fill-opacity="1"
    fill-rule="nonzero"
  />
  <path
    fill="#ffffff"
    d="M 117.460938 216.324219 L 116.210938 221.363281 L 116.667969 223.066406 L 125.972656 221.566406 L 124.96875 217.839844 C 124.96875 217.839844 121.847656 217.871094 119.710938 216.359375 C 117.917969 215.09375 117.460938 216.324219 117.460938 216.324219 "
    fill-opacity="1"
    fill-rule="nonzero"
  />
  <path
    fill="#87bbf9"
    d="M 113.148438 229.429688 C 112.910156 225.046875 116.335938 220.878906 116.335938 220.878906 C 115.699219 222.773438 121.367188 219.78125 124.410156 220.546875 C 127.492188 221.320312 130.8125 227.445312 131.328125 230.773438 C 132.226562 236.574219 132.117188 237.148438 132.039062 245.421875 C 131.96875 253.691406 131.125 266.808594 131.3125 268.390625 C 131.875 273.085938 116.992188 270.898438 116.949219 268.835938 C 116.734375 258.054688 113.601562 237.78125 113.148438 229.429688 "
    fill-opacity="1"
    fill-rule="nonzero"
  />
  <path
    fill="#ffffff"
    d="M 125.601562 225.675781 C 119.609375 219.519531 113.839844 224.433594 117.402344 230.898438 C 121.234375 237.847656 137.699219 249.246094 140.105469 249.296875 C 144.175781 249.375 144.726562 244.703125 141.328125 242.292969 C 139.003906 240.644531 127.761719 227.890625 125.601562 225.675781 "
    fill-opacity="1"
    fill-rule="nonzero"
  />
  <path
    fill="#996043"
    d="M 160.609375 238.898438 C 162.265625 239.722656 164.257812 240.941406 165.320312 240.933594 C 166.179688 240.925781 167.09375 240.476562 168.074219 239.558594 C 169.210938 238.496094 169.199219 238.003906 169.199219 238.003906 C 169.199219 238.003906 167.5625 238.074219 166.960938 237.882812 C 164.746094 237.164062 170.175781 236.429688 169.820312 235.621094 C 169.617188 235.167969 168.269531 235.117188 166.796875 235.457031 C 165.449219 235.765625 164 235.296875 163.347656 235.5 C 162.722656 235.695312 161.65625 236.082031 161.273438 236.457031 C 160.394531 237.316406 160.609375 238.898438 160.609375 238.898438 "
    fill-opacity="1"
    fill-rule="nonzero"
  />
  <path
    fill="#ffffff"
    d="M 161.601562 239.867188 C 162.804688 238.851562 161.960938 236.03125 160.429688 236.324219 C 157.625 236.867188 146.511719 240.160156 142.460938 241.523438 C 137.035156 243.347656 136.515625 249.855469 141.007812 249.261719 C 145.0625 248.71875 158.375 242.589844 161.601562 239.867188 "
    fill-opacity="1"
    fill-rule="nonzero"
  />
  <path
    fill="#f7f7f7"
    d="M 357.015625 177.207031 L 297.351562 213.855469 C 297.074219 214.023438 296.882812 214.292969 296.804688 214.613281 C 296.726562 214.925781 296.777344 215.257812 296.949219 215.53125 L 321.695312 255.855469 C 322.046875 256.429688 322.800781 256.613281 323.375 256.257812 L 383.039062 219.609375 C 383.613281 219.257812 383.792969 218.503906 383.4375 217.925781 L 358.695312 177.605469 C 358.523438 177.328125 358.253906 177.132812 357.9375 177.058594 C 357.621094 176.984375 357.292969 177.03125 357.015625 177.207031 "
    fill-opacity="1"
    fill-rule="nonzero"
  />
  <path
    fill="#87bbf9"
    d="M 319.742188 203.546875 L 354.390625 182.269531 L 356.019531 184.921875 L 321.375 206.203125 L 319.742188 203.546875 "
    fill-opacity="1"
    fill-rule="nonzero"
  />
  <path
    fill="#f04d65"
    d="M 337.472656 209.867188 L 309.042969 227.328125 L 304.863281 220.519531 L 333.289062 203.058594 L 337.472656 209.867188 "
    fill-opacity="1"
    fill-rule="nonzero"
  />
  <path
    fill="#8a65dc"
    d="M 326.515625 235.933594 L 317.664062 241.371094 L 310.480469 229.667969 L 319.335938 224.230469 L 326.515625 235.933594 "
    fill-opacity="1"
    fill-rule="nonzero"
  />
  <path
    fill="#8a65dc"
    d="M 346.089844 223.910156 L 329.390625 234.167969 L 322.207031 222.464844 L 338.90625 212.207031 L 346.089844 223.910156 "
    fill-opacity="1"
    fill-rule="nonzero"
  />
  <path
    fill="#f04d65"
    d="M 351.753906 233.136719 L 323.328125 250.601562 L 319.148438 243.792969 L 347.574219 226.332031 L 351.753906 233.136719 "
    fill-opacity="1"
    fill-rule="nonzero"
  />
  <path
    fill="#e5e0ff"
    d="M 363.238281 194.035156 L 343.511719 206.152344 L 339.335938 199.34375 L 359.058594 187.226562 L 363.238281 194.035156 "
    fill-opacity="1"
    fill-rule="nonzero"
  />
  <path
    fill="#87bbf9"
    d="M 377.519531 217.3125 L 357.796875 229.425781 L 344.949219 208.496094 L 364.675781 196.378906 L 377.519531 217.3125 "
    fill-opacity="1"
    fill-rule="nonzero"
  />
  <path
    fill="#f04d65"
    d="M 309.984375 211.371094 C 309.5 210.589844 309.75 209.554688 310.535156 209.074219 C 311.320312 208.59375 312.347656 208.839844 312.828125 209.625 C 313.3125 210.414062 313.066406 211.441406 312.28125 211.921875 C 311.492188 212.40625 310.46875 212.160156 309.984375 211.371094 "
    fill-opacity="1"
    fill-rule="nonzero"
  />
  <path
    fill="#fcc62b"
    d="M 305.960938 213.84375 C 305.480469 213.058594 305.722656 212.027344 306.511719 211.546875 C 307.296875 211.0625 308.328125 211.308594 308.808594 212.09375 C 309.292969 212.882812 309.046875 213.910156 308.257812 214.394531 C 307.472656 214.875 306.445312 214.628906 305.960938 213.84375 "
    fill-opacity="1"
    fill-rule="nonzero"
  />
  <path
    fill="#87bbf9"
    d="M 301.945312 216.3125 C 301.460938 215.527344 301.703125 214.496094 302.492188 214.015625 C 303.277344 213.53125 304.304688 213.78125 304.789062 214.5625 C 305.273438 215.351562 305.023438 216.378906 304.238281 216.863281 C 303.453125 217.347656 302.425781 217.097656 301.945312 216.3125 "
    fill-opacity="1"
    fill-rule="nonzero"
  />
  <path
    fill="#ed996f"
    d="M 371.664062 195.289062 C 371.550781 193.441406 371.613281 191.101562 371.074219 190.183594 C 370.644531 189.445312 369.796875 188.878906 368.511719 188.484375 C 367.023438 188.027344 366.605469 188.285156 366.605469 188.285156 C 366.605469 188.285156 367.484375 189.664062 367.617188 190.285156 C 368.09375 192.5625 364.753906 188.21875 364.230469 188.933594 C 363.941406 189.332031 364.570312 190.523438 365.59375 191.636719 C 366.53125 192.648438 366.851562 194.144531 367.355469 194.605469 C 367.835938 195.050781 368.699219 195.78125 369.214844 195.925781 C 370.398438 196.261719 371.664062 195.289062 371.664062 195.289062 "
    fill-opacity="1"
    fill-rule="nonzero"
  />
  <path
    fill="#ed996f"
    d="M 338.660156 250.222656 C 337.515625 251.675781 336.230469 253.625 335.265625 254.070312 C 334.488281 254.429688 333.46875 254.414062 332.191406 254 C 330.707031 253.527344 330.511719 253.078125 330.511719 253.078125 C 330.511719 253.078125 332.023438 252.445312 332.480469 252.011719 C 334.179688 250.414062 328.957031 252.070312 328.933594 251.1875 C 328.921875 250.691406 330.121094 250.070312 331.597656 249.746094 C 332.945312 249.453125 334.0625 248.414062 334.738281 248.316406 C 335.386719 248.226562 336.511719 248.125 337.023438 248.296875 C 338.183594 248.699219 338.660156 250.222656 338.660156 250.222656 "
    fill-opacity="1"
    fill-rule="nonzero"
  />
  <path
    fill="#ffffff"
    d="M 370.699219 193.601562 C 369.488281 193.601562 368.417969 195.726562 368.808594 196.691406 C 369.136719 197.496094 370.226562 200.65625 373.890625 206.214844 C 375.613281 212.171875 374.617188 223.441406 373.636719 227.449219 C 372.75 231.0625 382.613281 233.964844 383.292969 228.316406 C 384.15625 221.203125 382.925781 207.746094 381.566406 204.863281 C 381.09375 203.867188 373.796875 193.59375 370.699219 193.601562 "
    fill-opacity="1"
    fill-rule="nonzero"
  />
  <path
    fill="#f2a371"
    d="M 362.570312 201.230469 C 362.359375 200.835938 360.828125 200.410156 360.667969 200.828125 C 360.140625 202.207031 358.773438 207.417969 361.753906 215.335938 C 363.257812 219.324219 365.894531 221.691406 366.890625 221.117188 C 367.929688 220.519531 369.992188 217.175781 370.304688 212.972656 C 372.40625 209.925781 363.84375 203.601562 362.570312 201.230469 "
    fill-opacity="1"
    fill-rule="nonzero"
  />
  <path
    fill="#ed996f"
    d="M 368.214844 214.160156 L 368.691406 224.132812 C 368.691406 224.132812 368.03125 224.328125 367.90625 224.765625 C 367.285156 226.921875 365.542969 233.421875 366.808594 234.347656 C 367.792969 235.0625 376.96875 224.171875 376.96875 224.171875 L 375.589844 223.472656 L 372.335938 211.890625 L 368.214844 214.160156 "
    fill-opacity="1"
    fill-rule="nonzero"
  />
  <path
    fill="#f04d65"
    d="M 389.402344 358.851562 C 389.082031 359.441406 389.515625 361.71875 388.472656 361.890625 C 381.367188 363.0625 374.46875 364.5 375.605469 366.113281 L 394.980469 366.121094 C 396.269531 362.488281 393.734375 359.253906 393.734375 359.253906 L 389.402344 358.851562 "
    fill-opacity="1"
    fill-rule="nonzero"
  />
  <path
    fill="#f04d65"
    d="M 349.855469 359.050781 C 349.53125 359.644531 348.003906 361.71875 346.960938 361.890625 C 339.855469 363.0625 336.933594 364.5 338.070312 366.113281 L 353.84375 366.121094 C 354.753906 362.667969 354.183594 359.453125 354.183594 359.453125 L 349.855469 359.050781 "
    fill-opacity="1"
    fill-rule="nonzero"
  />
  <path
    fill="#494a57"
    d="M 390.539062 323.972656 C 389.035156 316.605469 389.789062 278.09375 384.691406 270.761719 L 370.535156 275.6875 C 370.535156 275.6875 379.359375 320.386719 380.289062 325.09375 C 380.988281 328.648438 388.578125 361.476562 388.578125 361.476562 C 392.964844 362.167969 394.882812 360.484375 394.882812 360.484375 C 394.882812 360.484375 393.949219 348.179688 393.769531 336.398438 C 393.65625 329.101562 391.035156 326.390625 390.539062 323.972656 "
    fill-opacity="1"
    fill-rule="nonzero"
  />
  <path
    fill="#585a69"
    d="M 381.585938 284.039062 C 382.539062 278.25 381.585938 270.761719 381.585938 270.761719 C 378.101562 267.082031 367.277344 269.378906 366.894531 271.859375 C 366.027344 277.53125 360.421875 317.742188 360.175781 319.507812 C 359.929688 321.273438 348.421875 360.847656 348.421875 360.847656 C 348.421875 360.847656 352.699219 362.230469 354.867188 361.523438 C 355.925781 361.175781 367.269531 337.027344 368.328125 332.484375 C 369.425781 327.753906 369.070312 324.398438 368.953125 323.285156 C 368.882812 322.628906 379.863281 294.515625 381.585938 284.039062 "
    fill-opacity="1"
    fill-rule="nonzero"
  />
  <path
    fill="#e5e0ff"
    d="M 374.992188 219.1875 L 377 223.890625 L 376.824219 225.621094 L 366.027344 232.738281 L 367.929688 221.839844 C 367.929688 221.839844 369.332031 220.816406 371.511719 219.8125 C 373.476562 218.910156 374.992188 219.1875 374.992188 219.1875 "
    fill-opacity="1"
    fill-rule="nonzero"
  />
  <path
    fill="#f04d65"
    d="M 382.179688 224.292969 C 381.050781 223.269531 374.617188 223.441406 374.617188 223.441406 C 373.40625 223.472656 367.214844 224 365.011719 226.042969 C 362.511719 228.359375 362.953125 233.800781 362.972656 237.121094 C 363.007812 242.902344 366.832031 270.292969 366.894531 271.859375 C 367.085938 276.515625 384.761719 274.097656 384.691406 270.761719 C 384.15625 244.703125 389.421875 230.882812 382.179688 224.292969 "
    fill-opacity="1"
    fill-rule="nonzero"
  />
  <path
    fill="#ffffff"
    d="M 338.246094 251.5625 C 337.507812 251.457031 335.652344 247.890625 336.953125 247.675781 C 341.605469 246.90625 350.554688 248.789062 351.800781 248.941406 C 356.476562 242.863281 359.953125 231.351562 362.726562 227.511719 C 365.472656 223.699219 373.945312 224.171875 372.28125 230.6875 C 370.125 239.175781 357.867188 254.148438 354.703125 256.644531 C 353.609375 257.503906 340.851562 251.933594 338.246094 251.5625 "
    fill-opacity="1"
    fill-rule="nonzero"
  />
  <path
    fill="#494a57"
    d="M 359.285156 198.238281 L 359.265625 198.21875 C 358.125 197.070312 357.941406 195.359375 358.605469 193.921875 C 359.085938 192.886719 359.644531 191.957031 360.199219 191.160156 C 360.601562 192.179688 361.28125 193.101562 362.171875 193.800781 C 361.640625 192.585938 361.507812 191.226562 361.761719 189.933594 C 361.90625 189.203125 362.316406 188.539062 362.882812 188.023438 L 362.914062 188 C 362.914062 188 374.183594 197.9375 376.152344 202.128906 C 377.769531 205.566406 374.5 212.296875 373.265625 215.191406 C 373.265625 215.191406 369.441406 217.261719 368.285156 215.636719 C 364.160156 209.839844 361.910156 210.675781 359.382812 206.699219 C 357.28125 203.394531 356.957031 200.238281 357.457031 197.488281 C 357.976562 197.910156 358.605469 198.210938 359.285156 198.238281 "
    fill-opacity="1"
    fill-rule="nonzero"
  />
  <path
    fill="#f2a371"
    d="M 363.636719 209.171875 C 363.386719 209.546875 362.878906 211.023438 363.699219 213.136719 C 364.109375 214.199219 364.933594 214.792969 365.273438 214.613281 C 365.632812 214.429688 366.402344 212.386719 366.355469 211.242188 C 366.3125 210.195312 364.421875 208 363.636719 209.171875 "
    fill-opacity="1"
    fill-rule="nonzero"
  />
  <path
    fill="#e5e0ff"
    d="M 198.59375 319.671875 L 185.0625 331.589844 C 184.753906 331.863281 184.28125 331.835938 184.007812 331.527344 L 158.507812 302.542969 C 158.234375 302.234375 158.261719 301.765625 158.570312 301.492188 L 172.101562 289.570312 C 172.414062 289.296875 172.882812 289.328125 173.15625 289.640625 L 198.660156 318.617188 C 198.933594 318.929688 198.902344 319.398438 198.59375 319.671875 "
    fill-opacity="1"
    fill-rule="nonzero"
  />
  <path
    fill="#8a65dc"
    d="M 183.285156 301.152344 L 168.636719 314.054688 L 163.347656 308.046875 L 178 295.140625 L 183.285156 301.152344 "
    fill-opacity="1"
    fill-rule="nonzero"
  />
  <path
    fill="#87bbf9"
    d="M 188.574219 307.160156 L 173.925781 320.066406 L 168.636719 314.054688 L 183.285156 301.152344 L 188.574219 307.160156 "
    fill-opacity="1"
    fill-rule="nonzero"
  />
  <path
    fill="#eeebff"
    d="M 193.867188 313.171875 L 179.214844 326.074219 L 173.925781 320.066406 L 188.574219 307.160156 L 193.867188 313.171875 "
    fill-opacity="1"
    fill-rule="nonzero"
  />
  <path
    fill="#a4cbf9"
    d="M 198.59375 319.671875 L 185.0625 331.589844 C 184.753906 331.863281 184.28125 331.835938 184.007812 331.527344 L 179.214844 326.074219 L 193.867188 313.171875 L 198.660156 318.617188 C 198.933594 318.929688 198.902344 319.398438 198.59375 319.671875 "
    fill-opacity="1"
    fill-rule="nonzero"
  />
  <path
    fill="#6a6d85"
    d="M 167.421875 296.789062 C 167.160156 296.789062 166.898438 296.878906 166.683594 297.0625 C 166.230469 297.46875 166.183594 298.171875 166.585938 298.628906 C 166.785156 298.851562 167.054688 298.988281 167.347656 299.007812 C 167.648438 299.019531 167.929688 298.925781 168.152344 298.730469 C 168.375 298.535156 168.507812 298.265625 168.527344 297.964844 C 168.546875 297.675781 168.445312 297.386719 168.25 297.164062 C 168.03125 296.917969 167.726562 296.789062 167.421875 296.789062 Z M 167.421875 299.945312 L 167.292969 299.945312 C 166.746094 299.910156 166.246094 299.660156 165.882812 299.25 C 165.136719 298.402344 165.222656 297.105469 166.066406 296.359375 C 166.914062 295.617188 168.210938 295.695312 168.957031 296.542969 C 169.320312 296.953125 169.5 297.480469 169.464844 298.027344 C 169.429688 298.574219 169.183594 299.074219 168.769531 299.433594 C 168.394531 299.765625 167.921875 299.945312 167.421875 299.945312 "
    fill-opacity="1"
    fill-rule="nonzero"
  />
  <path
    fill="#ffffff"
    d="M 163.644531 335 L 146.667969 328.925781 C 146.28125 328.789062 146.078125 328.359375 146.21875 327.972656 L 159.210938 291.613281 C 159.351562 291.222656 159.777344 291.023438 160.164062 291.164062 L 177.140625 297.234375 C 177.53125 297.375 177.734375 297.800781 177.59375 298.191406 L 164.597656 334.550781 C 164.457031 334.9375 164.03125 335.136719 163.644531 335 "
    fill-opacity="1"
    fill-rule="nonzero"
  />
  <path
    fill="#f04d65"
    d="M 172.433594 312.632812 L 154.050781 306.054688 L 156.746094 298.515625 L 175.128906 305.09375 L 172.433594 312.632812 "
    fill-opacity="1"
    fill-rule="nonzero"
  />
  <path
    fill="#eeebff"
    d="M 169.738281 320.171875 L 151.355469 313.597656 L 154.050781 306.054688 L 172.433594 312.632812 L 169.738281 320.171875 "
    fill-opacity="1"
    fill-rule="nonzero"
  />
  <path
    fill="#87bbf9"
    d="M 167.042969 327.710938 L 148.660156 321.132812 L 151.355469 313.597656 L 169.738281 320.171875 L 167.042969 327.710938 "
    fill-opacity="1"
    fill-rule="nonzero"
  />
  <path
    fill="#8a65dc"
    d="M 163.644531 335 L 146.667969 328.925781 C 146.28125 328.789062 146.078125 328.359375 146.21875 327.972656 L 148.660156 321.132812 L 167.042969 327.710938 L 164.597656 334.550781 C 164.457031 334.9375 164.03125 335.136719 163.644531 335 "
    fill-opacity="1"
    fill-rule="nonzero"
  />
  <path
    fill="#6a6d85"
    d="M 167.59375 296.054688 C 167.136719 296.054688 166.707031 296.339844 166.546875 296.792969 C 166.34375 297.367188 166.644531 298.003906 167.222656 298.214844 C 167.496094 298.3125 167.796875 298.296875 168.066406 298.171875 C 168.335938 298.042969 168.535156 297.820312 168.636719 297.542969 C 168.839844 296.964844 168.539062 296.328125 167.964844 296.125 C 167.84375 296.078125 167.714844 296.054688 167.59375 296.054688 Z M 167.59375 299.21875 C 167.363281 299.21875 167.128906 299.175781 166.902344 299.097656 C 165.839844 298.714844 165.28125 297.542969 165.664062 296.480469 C 165.847656 295.964844 166.222656 295.550781 166.71875 295.316406 C 167.210938 295.082031 167.769531 295.054688 168.28125 295.238281 C 169.34375 295.621094 169.898438 296.792969 169.519531 297.855469 C 169.335938 298.375 168.964844 298.785156 168.46875 299.019531 C 168.191406 299.152344 167.890625 299.21875 167.59375 299.21875 "
    fill-opacity="1"
    fill-rule="nonzero"
  />
  <g clip-path="url(#1500d6fcd4)">
    <path
      fill="#494a57"
      d="M 420.601562 366.203125 L 39.054688 366.203125 C 37.597656 366.203125 36.414062 367.277344 36.414062 368.609375 C 36.414062 369.9375 37.597656 371.011719 39.054688 371.011719 L 420.601562 371.011719 C 422.058594 371.011719 423.238281 369.9375 423.238281 368.609375 C 423.238281 367.277344 422.058594 366.203125 420.601562 366.203125 "
      fill-opacity="1"
      fill-rule="nonzero"
    />
  </g>
</svg>
