<svg width="20" height="20" viewBox="0 0 20 20" fill="none" xmlns="http://www.w3.org/2000/svg">
<path d="M16.4016 0.479996C15.9391 0.479996 15.4812 0.571084 15.0539 0.748061C14.6267 0.925038 14.2385 1.18444 13.9114 1.51145C13.5844 1.83846 13.325 2.22668 13.1481 2.65394C12.9711 3.0812 12.88 3.53913 12.88 4.0016C12.88 4.46406 12.9711 4.92199 13.1481 5.34925C13.325 5.77651 13.5844 6.16473 13.9114 6.49174C14.2385 6.81875 14.6267 7.07815 15.0539 7.25513C15.4812 7.43211 15.9391 7.52319 16.4016 7.52319C17.3356 7.52298 18.2312 7.15176 18.8915 6.49118C19.5518 5.8306 19.9226 4.93478 19.9224 4.00079C19.9222 3.06681 19.5509 2.17116 18.8904 1.51088C18.2298 0.850605 17.334 0.479784 16.4 0.479996H16.4016ZM3.60159 0.479996C3.13912 0.479996 2.68119 0.571084 2.25393 0.748061C1.82667 0.925038 1.43845 1.18444 1.11144 1.51145C0.784428 1.83846 0.52503 2.22668 0.348053 2.65394C0.171076 3.0812 0.0799866 3.53913 0.0799866 4.0016C0.0799866 4.46406 0.171076 4.92199 0.348053 5.34925C0.52503 5.77651 0.784428 6.16473 1.11144 6.49174C1.43845 6.81875 1.82667 7.07815 2.25393 7.25513C2.68119 7.43211 3.13912 7.52319 3.60159 7.52319C4.53557 7.52298 5.43122 7.15176 6.0915 6.49118C6.75178 5.8306 7.1226 4.93478 7.12239 4.00079C7.12217 3.06681 6.75095 2.17116 6.09037 1.51088C5.42979 0.850605 4.53397 0.479784 3.59999 0.479996H3.60159Z" fill="#699BF7"/>
<path d="M16.4016 12.48C15.9391 12.48 15.4812 12.5711 15.0539 12.7481C14.6267 12.925 14.2385 13.1844 13.9114 13.5114C13.5844 13.8385 13.325 14.2267 13.1481 14.6539C12.9711 15.0812 12.88 15.5391 12.88 16.0016C12.88 16.4641 12.9711 16.922 13.1481 17.3493C13.325 17.7765 13.5844 18.1647 13.9114 18.4917C14.2385 18.8188 14.6267 19.0782 15.0539 19.2551C15.4812 19.4321 15.9391 19.5232 16.4016 19.5232C17.3356 19.523 18.2312 19.1518 18.8915 18.4912C19.5518 17.8306 19.9226 16.9348 19.9224 16.0008C19.9222 15.0668 19.5509 14.1712 18.8904 13.5109C18.2298 12.8506 17.334 12.4798 16.4 12.48H16.4016ZM3.60159 12.48C3.13912 12.48 2.68119 12.5711 2.25393 12.7481C1.82667 12.925 1.43845 13.1844 1.11144 13.5114C0.784428 13.8385 0.52503 14.2267 0.348053 14.6539C0.171076 15.0812 0.0799866 15.5391 0.0799866 16.0016C0.0799866 16.4641 0.171076 16.922 0.348053 17.3493C0.52503 17.7765 0.784428 18.1647 1.11144 18.4917C1.43845 18.8188 1.82667 19.0782 2.25393 19.2551C2.68119 19.4321 3.13912 19.5232 3.60159 19.5232C4.53557 19.523 5.43122 19.1518 6.0915 18.4912C6.75178 17.8306 7.1226 16.9348 7.12239 16.0008C7.12217 15.0668 6.75095 14.1712 6.09037 13.5109C5.42979 12.8506 4.53397 12.4798 3.59999 12.48H3.60159Z" fill="#699BF7"/>
</svg>
